<?xml version="1.0" standalone="no"?>
<!DOCTYPE svg PUBLIC "-//W3C//DTD SVG 20010904//EN"
 "http://www.w3.org/TR/2001/REC-SVG-20010904/DTD/svg10.dtd">
<svg version="1.0" xmlns="http://www.w3.org/2000/svg"
 width="436.000000pt" height="436.000000pt" viewBox="0 0 436.000000 436.000000"
 preserveAspectRatio="xMidYMid meet">
<metadata>
Created by potrace 1.11, written by Peter Selinger 2001-2013
</metadata>
<g transform="translate(0.000000,436.000000) scale(0.100000,-0.100000)"
fill="#000000" stroke="none">
<path d="M2180 4221 c-117 -40 -184 -72 -329 -159 -107 -64 -296 -193 -311
-212 -3 -3 -21 -17 -40 -30 -19 -13 -37 -27 -40 -30 -3 -3 -26 -23 -52 -44
l-47 -38 -103 5 c-105 5 -185 19 -220 38 -19 10 -19 11 -1 31 26 29 244 195
328 250 85 55 191 113 265 145 75 32 20 21 -114 -22 -403 -133 -711 -351
-1022 -725 -169 -203 -279 -420 -381 -752 -12 -38 -17 -68 -12 -68 6 0 6 -8
-1 -19 -27 -51 -1 -129 62 -186 l51 -45 -30 -68 c-59 -132 -72 -206 -58 -331
6 -60 23 -122 24 -92 1 21 104 220 170 328 63 104 69 108 136 92 65 -16 246
-31 385 -32 104 0 362 13 373 20 5 3 -12 -21 -38 -53 -106 -133 -254 -335
-315 -432 l-65 -103 -100 6 c-127 7 -156 10 -275 32 -167 30 -303 99 -351 178
-17 27 -19 28 -19 8 0 -91 98 -473 145 -562 36 -70 141 -131 294 -170 l64 -17
-2 -75 c-2 -85 5 -100 107 -219 85 -99 132 -145 133 -129 0 8 2 21 4 29 2 8 6
31 10 50 8 47 51 169 86 247 l28 63 138 1 c76 0 154 2 173 4 19 1 78 5 130 9
52 4 109 9 125 11 17 2 53 7 80 10 74 8 198 25 223 30 29 5 28 1 -12 -54 -77
-106 -214 -345 -262 -459 -6 -14 -426 -20 -557 -8 -108 9 -231 32 -302 54 -61
20 -134 58 -147 76 -4 6 -9 8 -12 5 -10 -10 201 -217 313 -306 97 -78 126 -95
194 -118 99 -32 221 -51 352 -54 79 -2 104 -6 120 -20 26 -23 198 -79 322
-104 20 -4 21 -1 22 61 0 36 4 69 8 73 4 4 35 10 68 14 82 9 183 22 226 30 9
2 32 6 50 9 35 6 170 31 224 41 17 3 77 17 135 31 58 14 116 27 129 30 14 3
28 7 33 10 13 8 11 3 -40 -97 -27 -52 -52 -106 -55 -121 -6 -23 -15 -28 -65
-39 -78 -17 -73 -16 -112 -23 -19 -3 -60 -10 -90 -16 -80 -15 -253 -39 -345
-48 -109 -10 -409 -9 -470 1 -27 5 -47 6 -44 3 16 -17 255 -65 407 -83 78 -9
344 -8 417 1 94 11 234 35 305 51 36 9 74 17 85 19 115 23 411 133 518 193 33
18 61 33 64 33 14 0 246 161 321 224 91 76 146 133 77 80 -108 -83 -324 -186
-584 -280 -108 -39 -111 -39 -111 -19 0 20 98 210 118 228 9 9 55 29 102 45
373 129 709 313 840 459 113 126 288 608 249 685 -7 13 -20 16 -62 14 -206
-14 -581 -263 -971 -648 -159 -157 -160 -157 -240 -184 -45 -14 -92 -30 -106
-35 -30 -10 -277 -77 -308 -84 -12 -3 -31 -7 -42 -10 -81 -20 -225 -54 -250
-59 -14 -2 -72 -14 -130 -25 -58 -11 -124 -23 -148 -26 l-43 -7 41 67 c89 145
148 230 283 402 70 90 85 104 121 113 49 12 74 19 241 65 807 224 1469 572
1601 841 30 62 37 129 20 219 -4 22 -9 58 -12 80 -14 104 -85 356 -120 426
-18 36 -59 49 -141 44 -169 -9 -471 -157 -793 -388 -78 -56 -338 -261 -385
-304 -11 -10 -43 -38 -70 -62 -28 -24 -117 -108 -199 -185 -81 -78 -156 -144
-165 -148 -60 -22 -582 -131 -736 -154 -22 -3 -50 -7 -61 -9 -12 -2 -48 -6
-80 -10 -33 -4 -69 -8 -82 -10 -13 -2 -53 -7 -89 -11 l-67 -6 19 28 c16 25
210 270 225 284 3 3 38 43 79 90 168 193 234 256 276 265 22 5 45 9 50 10 6 2
24 5 40 8 39 7 61 13 110 25 22 6 51 13 65 16 26 4 125 31 275 72 158 45 495
160 580 199 16 8 55 24 85 35 86 34 362 174 430 219 34 23 64 41 66 41 3 0 10
4 17 10 161 130 196 165 239 238 31 52 43 108 33 153 -7 30 -127 182 -197 249
-170 163 -241 216 -296 223 -194 22 -620 -191 -1052 -524 -113 -87 -319 -260
-398 -334 -132 -122 -118 -117 -397 -159 -119 -18 -193 -28 -330 -42 -118 -12
-435 -13 -428 -1 19 31 181 209 310 340 133 135 147 147 181 148 20 0 44 2 52
4 8 1 44 5 80 9 74 7 96 10 240 36 628 114 1206 358 1345 569 24 35 30 63 26
113 -1 21 -42 63 -79 82 -51 26 -247 84 -357 106 -60 12 -155 24 -210 26 -89
3 -109 0 -185 -25z m298 -41 c47 -76 -96 -194 -363 -300 -81 -32 -307 -101
-312 -96 -8 7 200 156 342 246 65 40 304 169 315 170 3 0 11 -9 18 -20z m857
-676 c-57 -48 -191 -132 -295 -185 -126 -65 -200 -100 -200 -95 0 5 192 129
275 178 62 37 236 127 245 127 3 0 -8 -11 -25 -25z m-2689 -138 c31 -22 134
-53 202 -61 34 -4 62 -9 62 -12 0 -4 -86 -101 -198 -223 -13 -14 -60 -70 -105
-125 -74 -91 -83 -100 -111 -97 -62 6 -206 88 -206 117 0 4 8 17 18 30 9 12
24 33 32 46 42 64 269 339 280 339 3 0 15 -6 26 -14z m3249 -830 c-16 -14 -44
-33 -62 -43 -18 -10 -33 -21 -33 -25 0 -5 -4 -8 -9 -8 -5 0 -38 -17 -73 -39
-106 -64 -308 -165 -308 -153 0 4 12 14 28 23 15 9 74 47 132 85 96 62 322
183 344 184 5 0 -4 -11 -19 -24z m45 -1150 c0 -2 -7 -7 -16 -10 -8 -3 -12 -2
-9 4 6 10 25 14 25 6z m-50 -27 c-25 -16 -96 -52 -88 -44 13 14 83 54 93 55 6
0 3 -5 -5 -11z"/>
</g>
</svg>
