<?xml version="1.0" encoding="iso-8859-1"?>
<!-- Generator: Adobe Illustrator 19.0.0, SVG Export Plug-In . SVG Version: 6.00 Build 0)  -->
<svg version="1.1" id="Layer_1" xmlns="http://www.w3.org/2000/svg" xmlns:xlink="http://www.w3.org/1999/xlink" x="0px" y="0px"
	 viewBox="0 0 512 512" style="enable-background:new 0 0 512 512;" xml:space="preserve">
<path style="fill:#AC762F;" d="M321.743,162.576c-10.482,0-18.983-8.498-18.983-18.983V81.511h-93.519v62.082
	c0,10.486-8.501,18.983-18.983,18.983s-18.983-8.498-18.983-18.983V79.606c0-19.884,16.181-36.061,36.061-36.061h97.329
	c19.884,0,36.061,16.177,36.061,36.061v63.987C340.726,154.079,332.225,162.576,321.743,162.576z"/>
<path style="fill:#66371E;" d="M503.537,451.53c0,9.347-7.576,16.926-16.926,16.926H25.386c-9.347,0-16.923-7.576-16.923-16.926
	V142.637c0-9.347,7.576-16.926,16.923-16.926h461.221c9.35,0,16.926,7.579,16.926,16.926V451.53H503.537z"/>
<path style="fill:#804525;" d="M494.497,121.11H17.503C7.838,121.11,0,128.948,0,138.616v132.01
	c69.403,25.044,158.638,40.113,255.998,40.113c97.364,0,186.599-15.069,256.002-40.117V138.616
	C512,128.948,504.162,121.11,494.497,121.11z"/>
<path style="fill:#E1B565;" d="M286.099,331.355c0,7.276-5.899,13.174-13.171,13.174h-33.852c-7.276,0-13.174-5.899-13.174-13.174
	v-48.563c0-7.276,5.899-13.171,13.174-13.171h33.852c7.272,0,13.171,5.895,13.171,13.171V331.355z"/>
<path style="fill:#846C3E;" d="M239.076,280.321c-1.363,0-2.471,1.108-2.471,2.471v48.563c0,1.363,1.108,2.471,2.471,2.471h33.852
	c1.363,0,2.471-1.108,2.471-2.471v-48.563c0-1.363-1.108-2.471-2.471-2.471H239.076z"/>
<g>
</g>
<g>
</g>
<g>
</g>
<g>
</g>
<g>
</g>
<g>
</g>
<g>
</g>
<g>
</g>
<g>
</g>
<g>
</g>
<g>
</g>
<g>
</g>
<g>
</g>
<g>
</g>
<g>
</g>
</svg>
