<?xml version="1.0" encoding="iso-8859-1"?>
<!-- Generator: Adobe Illustrator 19.0.0, SVG Export Plug-In . SVG Version: 6.00 Build 0)  -->
<svg version="1.1" id="Layer_1" xmlns="http://www.w3.org/2000/svg" xmlns:xlink="http://www.w3.org/1999/xlink" x="0px" y="0px"
	 viewBox="0 0 512.001 512.001" style="enable-background:new 0 0 512.001 512.001;" xml:space="preserve">
<g>
	<rect x="256.001" y="8.063" style="fill:#A5C6E3;" width="96.001" height="39.995"/>
	<rect x="295.995" y="32.063" style="fill:#A5C6E3;" width="96.001" height="39.995"/>
	<rect y="319.389" style="fill:#A5C6E3;" width="120.005" height="24.674"/>
	<rect x="391.997" y="319.389" style="fill:#A5C6E3;" width="120.005" height="24.674"/>
</g>
<g>
	<rect y="342.689" style="fill:#36A9E1;" width="120.005" height="161.375"/>
	<rect x="391.997" y="342.689" style="fill:#36A9E1;" width="120.005" height="161.375"/>
	<rect x="112.004" y="232.061" style="fill:#36A9E1;" width="288.005" height="24"/>
</g>
<rect x="96.002" y="208.068" style="fill:#A5C6E3;" width="319.998" height="24"/>
<polygon style="fill:#36A9E1;" points="432,208.063 80.001,208.063 80.001,176.063 256.001,120.062 432,176.063 "/>
<rect x="120.005" y="256.064" style="fill:#1D71B8;" width="272.003" height="248"/>
<g>
	<rect x="160.125" y="288.068" style="fill:#A5C6E3;" width="15.75" height="184.002"/>
	<rect x="208.121" y="288.068" style="fill:#A5C6E3;" width="15.75" height="184.002"/>
	<rect x="256.126" y="288.068" style="fill:#A5C6E3;" width="15.75" height="184.002"/>
	<rect x="304.122" y="288.068" style="fill:#A5C6E3;" width="15.75" height="184.002"/>
	<rect x="352.128" y="288.068" style="fill:#A5C6E3;" width="15.75" height="184.002"/>
</g>
<g>
	<rect y="496.188" style="fill:#1D1D1B;" width="512.001" height="15.75"/>
	<polygon style="fill:#1D1D1B;" points="399.875,488.062 384.125,488.062 384.125,263.937 127.875,263.937 127.875,488.062 
		112.125,488.062 112.125,248.187 399.875,248.187 	"/>
	<polygon style="fill:#1D1D1B;" points="144,287.937 152.125,287.937 152.125,472.188 144,472.188 144,487.938 176,487.938 
		176,472.188 167.875,472.188 167.875,287.937 176,287.937 176,272.187 144,272.187 	"/>
	<polygon style="fill:#1D1D1B;" points="192,287.937 200.125,287.937 200.125,472.188 192,472.188 192,487.938 224,487.938 
		224,472.188 215.875,472.188 215.875,287.937 224,287.937 224,272.187 192,272.187 	"/>
	<polygon style="fill:#1D1D1B;" points="240,287.937 248.126,287.937 248.126,472.188 240,472.188 240,487.938 272,487.938 
		272,472.188 263.876,472.188 263.876,287.937 272,287.937 272,272.187 240,272.187 	"/>
	<polygon style="fill:#1D1D1B;" points="288,287.937 296.124,287.937 296.124,472.188 288,472.188 288,487.938 320,487.938 
		320,472.188 311.875,472.188 311.875,287.937 320,287.937 320,272.187 288,272.187 	"/>
	<polygon style="fill:#1D1D1B;" points="368.001,287.937 368.001,272.187 359.875,272.187 359.875,272.063 344.125,272.063 
		344.125,272.187 336,272.187 336,287.937 344.125,287.937 344.125,472.188 336,472.188 336,487.938 368.001,487.938 
		368.001,472.188 359.875,472.188 359.875,287.937 	"/>
	<rect x="96.002" y="224.186" style="fill:#1D1D1B;" width="319.998" height="15.75"/>
	<rect y="312.186" style="fill:#1D1D1B;" width="104.003" height="15.75"/>
	<path style="fill:#1D1D1B;" d="M263.876,114.304V0.063h-15.75v114.242l-176.001,56v45.633h367.75v-45.633L263.876,114.304z
		 M424.125,200.188H87.875v-18.367l168.125-53.494l168.125,53.494v18.367H424.125z"/>
	<polygon style="fill:#1D1D1B;" points="359.875,55.938 272,55.938 272,40.188 344.125,40.188 344.125,15.938 272,15.938 272,0.188 
		359.875,0.188 	"/>
	<polygon style="fill:#1D1D1B;" points="399.875,79.938 312,79.938 312,64.188 384.125,64.188 384.125,39.938 368.001,39.938 
		368.001,24.188 399.875,24.188 	"/>
</g>
<rect x="248.126" y="160.062" style="fill:#FFFFFF;" width="15.75" height="16"/>
<g>
	
		<rect x="8.015" y="336.041" transform="matrix(-1 -0.0032 0.0032 -1 102.9308 687.9977)" style="fill:#1D1D1B;" width="88.001" height="15.75"/>
	
		<rect x="8.019" y="416.324" transform="matrix(-1 -0.0032 0.0032 -1 102.6809 848.5632)" style="fill:#1D1D1B;" width="88.001" height="15.75"/>
</g>
<g>
	<rect x="24.125" y="368.067" style="fill:#FFFFFF;" width="15.75" height="32"/>
	<rect x="64.124" y="368.067" style="fill:#FFFFFF;" width="15.75" height="32"/>
	<rect x="24.125" y="448.067" style="fill:#FFFFFF;" width="15.75" height="32.001"/>
	<rect x="64.124" y="448.067" style="fill:#FFFFFF;" width="15.75" height="32.001"/>
</g>
<g>
	<rect x="407.999" y="312.186" style="fill:#1D1D1B;" width="104.002" height="15.75"/>
	
		<rect x="416.017" y="336.023" transform="matrix(-1 -0.0032 0.0032 -1 918.9322 689.2664)" style="fill:#1D1D1B;" width="88.001" height="15.75"/>
	
		<rect x="416.021" y="416.307" transform="matrix(-1 -0.0032 0.0032 -1 918.6823 849.834)" style="fill:#1D1D1B;" width="88.001" height="15.75"/>
</g>
<g>
	<rect x="432.128" y="368.067" style="fill:#FFFFFF;" width="15.75" height="32"/>
	<rect x="472.122" y="368.067" style="fill:#FFFFFF;" width="15.75" height="32"/>
	<rect x="432.128" y="448.067" style="fill:#FFFFFF;" width="15.75" height="32.001"/>
	<rect x="472.122" y="448.067" style="fill:#FFFFFF;" width="15.75" height="32.001"/>
</g>
<g>
</g>
<g>
</g>
<g>
</g>
<g>
</g>
<g>
</g>
<g>
</g>
<g>
</g>
<g>
</g>
<g>
</g>
<g>
</g>
<g>
</g>
<g>
</g>
<g>
</g>
<g>
</g>
<g>
</g>
</svg>
