<?xml version="1.0" encoding="UTF-8"?>
<!DOCTYPE svg PUBLIC "-//W3C//DTD SVG 1.1//EN" "http://www.w3.org/Graphics/SVG/1.1/DTD/svg11.dtd">
<!-- Creator: CorelDRAW X5 -->
<svg xmlns="http://www.w3.org/2000/svg" xml:space="preserve" width="6.82666in" height="6.82666in" style="shape-rendering:geometricPrecision; text-rendering:geometricPrecision; image-rendering:optimizeQuality; fill-rule:evenodd; clip-rule:evenodd"
viewBox="0 0 6827 6827"
 xmlns:xlink="http://www.w3.org/1999/xlink">
 <defs>
  <style type="text/css">
   <![CDATA[
    .fil7.graduate {fill:none}
    .fil6.graduate {fill:darkgray}
    .fil5.graduate {fill:#B9B9B9}
    .fil4.graduate {fill:#C09A8E}
    .fil3.graduate {fill:#E0E0E0}
    .fil2.graduate {fill:whitesmoke}
    .fil1.graduate {fill:#FFCCBC}
    .fil0.graduate {fill:#4B4439;fill-rule:nonzero}
   ]]>
  </style>
 </defs>
 <g id="Layer_x0020_1">
  <metadata id="CorelCorpID_0Corel-Layer"/>
  <g id="_370879960">
   <path class="fil0 graduate" d="M1787 1557l1581 540 1582 -540 -1582 -540 -1581 540zm1556 700l-1828 -624 0 0c-23,-8 -42,-26 -50,-50 -14,-42 8,-87 50,-101l1828 -624 0 0c16,-5 34,-6 51,0l1829 624 0 0c23,8 42,26 50,50 14,42 -8,87 -50,101l-1829 624 0 0c-16,5 -34,6 -51,0z"/>
   <path class="fil0 graduate" d="M1505 1573c0,-44 36,-80 80,-80 44,0 80,36 80,80l0 758c0,44 -36,80 -80,80 -44,0 -80,-36 -80,-80l0 -758z"/>
   <path class="fil0 graduate" d="M1667 2885l-82 -275 -82 275 164 0zm-6 -578l188 631c3,8 5,18 5,27 0,44 -36,80 -80,80l-379 0 0 0c-8,0 -15,-1 -23,-3 -42,-13 -66,-57 -54,-99l189 -634c7,-25 27,-47 54,-55 42,-13 87,11 99,54z"/>
   <path class="fil0 graduate" d="M4584 2416c-3,3 -1028,908 -2421,21l86 -134c1292,823 2229,-4 2231,-7l104 121z"/>
   <path class="fil0 graduate" d="M1761 3270l1671 404 0 0c37,9 61,42 61,78l0 2142c0,44 -35,79 -79,79 -9,0 -17,-1 -25,-4l-1671 -404 0 0c-37,-9 -61,-42 -61,-78l0 -430c0,-42 33,-76 74,-79 66,-10 126,-52 170,-112 48,-65 76,-152 76,-247 0,-96 -29,-182 -76,-247 -20,-28 -149,-140 -176,-112 -40,-5 -69,-40 -69,-79l0 -836c0,-44 35,-79 79,-79 9,0 17,1 25,4zm1573 542l-1519 -367 0 674c84,28 158,84 214,160 67,91 107,211 107,341 0,130 -41,250 -107,341 -55,76 -129,132 -214,160l0 307 1519 367 0 -1981z"/>
   <path class="fil0 graduate" d="M5011 3445l-1519 367 0 1981 1519 -367 0 -307c-84,-28 -158,-84 -214,-160 -67,-91 -107,-211 -107,-341 0,-130 41,-250 107,-341 55,-76 129,-132 214,-160l0 -674zm-1616 228l1671 -404c8,-3 16,-4 25,-4 44,0 79,35 79,79l0 836c0,39 -29,74 -69,79l0 0c-68,9 -130,51 -176,113 -48,65 -76,152 -76,247 0,96 29,182 76,247 44,60 104,101 170,112 41,3 74,37 74,79l0 430c1,36 -24,69 -61,78l0 0 -1671 404c-8,3 -16,4 -25,4 -44,0 -79,-35 -79,-79l0 -2142c-1,-36 24,-69 61,-78l0 0z"/>
   <path class="fil0 graduate" d="M1659 4096c132,0 250,60 336,157l0 0c83,94 134,224 134,366 0,142 -51,272 -134,366l0 0c-85,97 -204,157 -336,157 -132,0 -250,-60 -336,-157l0 0c-83,-94 -134,-224 -134,-366 0,-142 51,-272 134,-366l0 0c85,-97 204,-157 336,-157zm216 263l0 0c-56,-63 -132,-103 -216,-103 -84,0 -160,39 -216,103l0 0c-58,66 -94,158 -94,261 0,103 36,195 94,261l0 0c56,63 132,103 216,103 84,0 160,-39 216,-103l0 0c58,-66 94,-158 94,-261 0,-103 -36,-195 -94,-261z"/>
   <path class="fil0 graduate" d="M5168 4096c132,0 250,60 336,157l0 0c83,94 134,224 134,366 0,142 -51,272 -134,366l0 0c-85,97 -204,157 -336,157 -132,0 -250,-60 -336,-157l0 0c-83,-94 -134,-224 -134,-366 0,-142 51,-272 134,-366l0 0c85,-97 204,-157 336,-157zm216 263l0 0c-56,-63 -132,-103 -216,-103 -84,0 -160,39 -216,103l0 0c-58,66 -94,158 -94,261 0,103 36,195 94,261l0 0c56,63 132,103 216,103 84,0 160,-39 216,-103l0 0c58,-66 94,-158 94,-261 0,-103 -36,-195 -94,-261z"/>
   <path class="fil1 graduate" d="M1969 4620c0,-103 -36,-195 -94,-261l0 0c-56,-63 -132,-103 -216,-103 -84,0 -160,39 -216,103l0 0c-58,66 -94,158 -94,261 0,103 36,195 94,261l0 0c56,63 132,103 216,103 84,0 160,-39 216,-103l0 0c58,-66 94,-158 94,-261z"/>
   <path class="fil1 graduate" d="M4952 4359c-58,66 -94,158 -94,261 0,103 36,195 94,261l0 0c56,63 132,103 216,103 84,0 160,-39 216,-103l0 0c58,-66 94,-158 94,-261 0,-103 -36,-195 -94,-261l0 0c-56,-63 -132,-103 -216,-103 -84,0 -160,39 -216,103l0 0z"/>
   <path class="fil2 graduate" d="M4690 4620c0,-130 41,-250 107,-341 55,-76 129,-132 214,-160l0 -674 -1519 367 0 1981 1519 -367 0 -307c-84,-28 -158,-84 -214,-160 -67,-91 -107,-211 -107,-341z"/>
   <path class="fil2 graduate" d="M3334 5794l0 -1981 -1519 -367 0 674c84,28 158,84 214,160 67,91 107,211 107,341 0,130 -41,250 -107,341 -55,76 -129,132 -214,160l0 307 1519 367z"/>
   <path class="fil1 graduate" d="M2516 3452l897 217 796 -192c-4,-17 -3,-36 5,-53 24,-52 48,-107 71,-165 23,-56 45,-116 68,-178 63,-176 87,-369 95,-565 -310,201 -1124,589 -2160,-2 8,199 32,394 96,571 20,54 40,109 62,164 21,52 43,102 65,152 8,17 9,36 5,53z"/>
   <polygon class="fil3 graduate" points="1787,1557 3368,2097 4950,1557 3368,1018 "/>
   <path class="fil3 graduate" d="M3342 2257l-1051 -359c-1,60 -2,121 -3,182 -2,81 -3,163 -3,245 1146,706 2005,118 2167,-7 0,-80 -2,-159 -3,-238 -1,-61 -2,-122 -3,-182l-1052 359c-16,5 -34,6 -51,0z"/>
   <polygon class="fil2 graduate" points="1667,2885 1585,2610 1503,2885 "/>
   <path class="fil4 graduate" d="M5153 4256c81,94 132,222 132,363 0,141 -50,269 -132,363 5,0 10,0 15,0 84,0 160,-39 216,-103l0 0c58,-66 94,-158 94,-261 0,-103 -36,-195 -94,-261l0 0c-56,-63 -132,-103 -216,-103 -5,0 -10,0 -15,0z"/>
   <path class="fil5 graduate" d="M5011 4119l0 -674 -195 47 0 688c0,39 -29,74 -69,79l0 0c-68,9 -130,51 -176,113 -48,65 -76,152 -76,247 0,96 29,182 76,247 44,60 104,101 170,112 41,3 74,37 74,79l0 416 195 -47 0 -307c-84,-28 -158,-84 -214,-160 -67,-91 -107,-211 -107,-341 0,-130 41,-250 107,-341 55,-76 129,-132 214,-160z"/>
   <path class="fil4 graduate" d="M4448 2515c-43,28 -96,59 -157,91 -8,213 -34,424 -104,620 -23,63 -46,125 -70,184 -14,33 -27,66 -42,98l134 -32c-4,-17 -3,-36 5,-53 24,-52 48,-107 71,-165 23,-56 45,-116 68,-178 63,-176 87,-369 95,-565z"/>
   <polygon class="fil6 graduate" points="4287,1952 4445,1898 4453,2334 4288,2435 "/>
   <path class="fil0 graduate" d="M4445 1823c0,-44 36,-80 80,-80 44,0 80,36 80,80 0,82 2,168 3,254 7,354 15,726 -104,1057 -23,63 -46,125 -70,184 -24,59 -49,116 -75,172 -18,40 -66,58 -106,39 -40,-18 -58,-66 -39,-106 24,-52 48,-107 71,-165 23,-56 45,-116 68,-178 109,-305 102,-662 95,-1001 -2,-87 -4,-173 -3,-258zm-1933 1577c18,40 0,88 -40,106 -40,18 -88,0 -106,-40 -23,-50 -45,-102 -68,-159 -21,-52 -43,-109 -64,-169 -120,-334 -112,-706 -105,-1060 2,-87 4,-173 3,-255 0,-44 36,-80 80,-80 44,0 80,36 80,80 0,85 -2,171 -3,258 -7,340 -14,697 96,1003 20,54 40,109 62,164 21,52 43,102 65,152z"/>
   <path class="fil6 graduate" d="M3269 1051l1261 430c23,8 42,26 50,50 14,42 -8,87 -50,101l-1261 430 99 34 1582 -540 -1582 -540 -99 34z"/>
  </g>
 </g>
 <rect class="fil7 graduate" width="6827" height="6827"/>
</svg>
