<?xml version="1.0" encoding="iso-8859-1"?>
<!-- Generator: Adobe Illustrator 19.0.0, SVG Export Plug-In . SVG Version: 6.00 Build 0)  -->
<svg version="1.1" id="Layer_1" xmlns="http://www.w3.org/2000/svg" xmlns:xlink="http://www.w3.org/1999/xlink" x="0px" y="0px"
	 viewBox="0 0 512 512" style="enable-background:new 0 0 512 512;" xml:space="preserve">
<path style="fill:#F5C882;" d="M482.385,86.226L482.385,86.226c-39.487-39.487-103.509-39.487-142.997,0l-94.722,94.722
	l146.71,139.282l91.008-91.007C521.872,189.734,521.872,125.713,482.385,86.226z"/>
<g>
	<path style="fill:#F5AF73;" d="M339.389,86.226l-33.783,33.782l13.902,7.191c14.092,7.289,31.342,4.443,42.224-7.103
		c17.834-18.922,46.332-46.61,72.323-60.694C401.114,51.675,365.072,60.542,339.389,86.226z"/>
	<path style="fill:#F5AF73;" d="M271.244,174.888l-11.963,11.963L370.691,298.26l11.963-11.963
		c24.368-24.368,24.368-63.877,0-88.245l-23.164-23.164C335.12,150.52,295.612,150.52,271.244,174.888z"/>
</g>
<path style="fill:#9B735A;" d="M105.63,299.557l-76.015-76.014c-39.487-39.487-39.487-103.508,0-142.994l0,0
	c39.487-39.487,103.509-39.487,142.995,0.001L202.66,110.6c25.121-12.002,58.45-10.008,83.772,5.1l-17.38,61.29l137.889,137.889
	c11.944,11.944,11.243,31.744-2.103,42.767c-11.634,9.608-28.962,7.881-39.631-2.788l-7.733-7.733
	c11.944,11.944,11.243,31.744-2.103,42.767c-11.634,9.608-28.962,7.881-39.631-2.788l-7.797-7.797
	c11.944,11.944,11.243,31.744-2.103,42.767c-11.634,9.608-28.962,7.881-39.631-2.788l-7.373-7.373
	c11.944,11.944,11.243,31.744-2.103,42.767c-11.634,9.608-28.962,7.881-39.631-2.788L104.497,339.28L105.63,299.557z"/>
<g>
	<path style="fill:#8C5F50;" d="M131.983,328.881l0.694-24.362c0.28-9.805-3.493-19.292-10.429-26.229L57.1,213.142
		c-30.599-30.6-37.444-75.916-20.612-113.145c1.723-3.811,0.915-8.27-2.285-10.961l0,0c-4.033-3.391-10.043-2.615-13.254,1.563
		c-30.472,39.641-27.64,96.637,8.668,132.944l76.014,76.014l-1.132,39.723l112.467,112.467c9.052,9.052,23.027,12.17,34.454,6.399
		c4.142-2.091,7.335-4.926,9.824-8.133c-6.127-1.067-12.024-3.897-16.653-8.525L131.983,328.881z"/>
	<path style="fill:#8C5F50;" d="M245.986,364.144c-4.82-4.82-12.636-4.82-17.457,0s-4.82,12.636,0,17.457l30.311,30.311
		c0,0,0,0-0.001-0.001l3.231,3.231l4.142,4.143c10.335,10.333,26.87,12.178,38.473,3.559L245.986,364.144z"/>
	<path style="fill:#8C5F50;" d="M294.686,331.134c-4.82-4.82-12.636-4.82-17.457,0c-4.821,4.82-4.82,12.636,0,17.457l30.729,30.729
		c-0.004-0.004-0.008-0.01-0.012-0.016l7.797,7.797c10.334,10.334,26.87,12.18,38.473,3.562L294.686,331.134z"/>
	<path style="fill:#8C5F50;" d="M343.386,298.124c-4.82-4.82-12.637-4.82-17.457,0c-4.82,4.82-4.82,12.636,0,17.457l31.57,31.57
		c-0.009-0.009-0.014-0.02-0.023-0.028l7.732,7.732c10.334,10.334,26.868,12.18,38.471,3.563L343.386,298.124z"/>
</g>
<g>
	<path style="fill:#F5C882;" d="M85.201,360.84L85.201,360.84c-11.282-11.282-11.282-29.574,0-40.856l10.214-10.214
		c11.282-11.282,29.574-11.282,40.856,0l0,0c11.282,11.282,11.282,29.574,0,40.856l-10.214,10.214
		C114.776,372.123,96.483,372.123,85.201,360.84z"/>
	<path style="fill:#F5C882;" d="M126.058,401.697L126.058,401.697c-11.282-11.282-11.282-29.574,0-40.856l0,0
		c11.282-11.282,29.574-11.282,40.856,0l0,0c11.282,11.282,11.282,29.574,0,40.856l0,0
		C155.632,412.979,137.34,412.979,126.058,401.697z"/>
	<path style="fill:#F5C882;" d="M172.02,437.446L172.02,437.446c-11.282-11.282-11.282-29.574,0-40.856l0,0
		c11.282-11.282,29.574-11.282,40.856,0l0,0c11.282,11.282,11.282,29.574,0,40.856l0,0
		C201.595,448.728,183.303,448.728,172.02,437.446z"/>
</g>
<g>
	<path style="fill:#F5AF73;" d="M114.172,331.87l10.214-10.214c4.279-4.279,9.568-6.917,15.098-7.95
		c-0.958-1.372-1.99-2.711-3.214-3.934c-11.282-11.282-29.574-11.282-40.856,0l-10.214,10.214
		c-11.282,11.282-11.282,29.575,0,40.857l0,0c7.003,7.003,16.705,9.641,25.756,7.95C103.083,357.524,104.115,341.928,114.172,331.87
		z"/>
	<path style="fill:#F5AF73;" d="M153.358,368.64c3.921-3.921,8.707-6.388,13.733-7.584c-0.067-0.068-0.109-0.148-0.176-0.216
		c-11.282-11.282-29.574-11.282-40.856,0s-11.282,29.575,0,40.857c7.362,7.361,17.688,9.829,27.123,7.584
		C142.1,397.983,142.142,379.855,153.358,368.64z"/>
	<path style="fill:#F5AF73;" d="M200.435,440.788c-11.282-11.282-11.282-29.574,0-40.857c2.685-2.685,5.784-4.685,9.076-6.093
		c-11.305-8.334-27.254-7.485-37.489,2.75c-11.282,11.282-11.282,29.575,0,40.857c8.597,8.597,21.246,10.597,31.78,6.093
		C202.644,442.685,201.482,441.836,200.435,440.788z"/>
</g>
<path style="fill:#F5C882;" d="M228.198,136.133l-51.07,51.07c-11.282,11.282-11.282,29.574,0,40.856
	c11.282,11.282,29.574,11.282,40.857,0l101.114-101.114C291.055,108.367,252.905,111.426,228.198,136.133z"/>
<g>
</g>
<g>
</g>
<g>
</g>
<g>
</g>
<g>
</g>
<g>
</g>
<g>
</g>
<g>
</g>
<g>
</g>
<g>
</g>
<g>
</g>
<g>
</g>
<g>
</g>
<g>
</g>
<g>
</g>
</svg>
