<svg id="bold" enable-background="new 0 0 24 24" height="512" viewBox="0 0 24 24" width="512" xmlns="http://www.w3.org/2000/svg"><path d="m16.25 24h-8.5c-.37 0-.685-.27-.741-.636l-1-6.5c-.033-.216.029-.437.172-.603s.35-.261.569-.261h10.5c.219 0 .427.096.569.262s.205.386.172.603l-1 6.5c-.056.365-.371.635-.741.635z"/><circle cx="12" cy="4" r="4"/><path d="m23.217 13c-.159-2.217-1.351-4.269-3.218-5.51-.005-.824-.674-1.49-1.499-1.49-.828 0-1.5.672-1.5 1.5s.672 1.5 1.5 1.5c.274 0 .527-.079.748-.207 1.407.969 2.316 2.522 2.469 4.207h-1.777c-.36-2.26-2.32-4-4.69-4h-6.5c-2.37 0-4.33 1.74-4.69 4h-3.31c-.531 0-.874.538-.71 1.01l2 5.5c.11.29.39.49.71.49h1.72l-.44-2.83c-.12-.8.11-1.6.63-2.21.446-.535 1.235-.96 2.09-.96h10.5c.755 0 1.517.311 2.09.96.52.61.75 1.41.63 2.21l-.44 2.83h1.72c.32 0 .6-.2.71-.49l2-5.5c.158-.455-.144-1.01-.743-1.01z"/></svg>