<?xml version="1.0" encoding="iso-8859-1"?>
<!-- Generator: Adobe Illustrator 19.0.0, SVG Export Plug-In . SVG Version: 6.00 Build 0)  -->
<svg version="1.1" id="Layer_1" xmlns="http://www.w3.org/2000/svg" xmlns:xlink="http://www.w3.org/1999/xlink" x="0px" y="0px"
	 viewBox="0 0 496 496" style="enable-background:new 0 0 496 496;" xml:space="preserve">
<path style="fill:#DDE9F2;" d="M408,472c0,12-13.6,24-24.8,24H112.8c-11.2,0-24.8-12.8-24.8-24V24c0-12,13.6-24,24.8-24h270.4
	C394.4,0,408,12.8,408,24V472z"/>
<path style="fill:#CDDCE0;" d="M88,24c0-16,8.8-24,20-24h274.4c12,0,25.6,12.8,25.6,24v448c0,12-13.6,24-24.8,24H112"/>
<path style="fill:#FFFFFF;" d="M408,467.2c0,11.2-13.6,20.8-24.8,20.8H112.8c-11.2,0-24.8-8.8-24.8-20.8V29.6
	C88,18.4,101.6,8,112.8,8h270.4C394.4,8,408,18.4,408,29.6V467.2z"/>
<path style="fill:#DDE9F2;" d="M112,8h271.2C394.4,8,408,18.4,408,29.6v437.6c0,11.2-13.6,20.8-24.8,20.8"/>
<path style="fill:#C0CFD8;" d="M384,436c0,10.4-8,20-18.4,20H130.4c-10.4,0-18.4-10.4-18.4-20V42.4C112,32,120,32,130.4,32h235.2
	C376,32,384,32,384,42.4V436z"/>
<path style="fill:#46E0E0;" d="M384,429.6c0,10.4-8,18.4-18.4,18.4H130.4c-10.4,0-18.4-8-18.4-18.4V50.4C112,40,120,32,130.4,32
	h235.2C376,32,384,40,384,50.4V429.6z"/>
<path style="fill:#1FC5C9;" d="M112,42.4C112,32,120,32,130.4,32h235.2C376,32,384,32,384,42.4V432c0,10.4-8,16-18.4,16"/>
<path style="fill:#12AAB2;" d="M365.6,32C376,32,384,32,384,42.4V432c0,10.4-8,16-18.4,16"/>
<circle style="fill:#27D68A;" cx="248" cy="19.2" r="4"/>
<path style="fill:#15AF83;" d="M248,14.4c2.4,0,4,1.6,4,4s-1.6,4.8-4,4.8"/>
<ellipse transform="matrix(0.1644 -0.9864 0.9864 0.1644 187.8924 256.9509)" style="fill:#CFFFEF;" cx="245.606" cy="17.576" rx="1.6" ry="0.8"/>
<circle style="fill:#FFD836;" cx="248" cy="469.6" r="14.4"/>
<path style="fill:#E5A923;" d="M248,455.2c8,0,14.4,6.4,14.4,14.4S256,484,248,484"/>
<circle style="fill:#FFFFFF;" cx="248" cy="469.6" r="11.2"/>
<path style="fill:#DDE9F2;" d="M248,458.4c6.4,0,11.2,4.8,11.2,11.2c0,6.4-4.8,11.2-11.2,11.2"/>
<path style="fill:#62F4F0;" d="M130.4,448c-10.4,0-18.4-6.4-18.4-16V42.4C112,32,120,32,130.4,32"/>
<g>
</g>
<g>
</g>
<g>
</g>
<g>
</g>
<g>
</g>
<g>
</g>
<g>
</g>
<g>
</g>
<g>
</g>
<g>
</g>
<g>
</g>
<g>
</g>
<g>
</g>
<g>
</g>
<g>
</g>
</svg>
