<?xml version="1.0" encoding="UTF-8"?>
<!DOCTYPE svg PUBLIC "-//W3C//DTD SVG 1.1//EN" "http://www.w3.org/Graphics/SVG/1.1/DTD/svg11.dtd">
<!-- Creator: CorelDRAW -->
<svg xmlns="http://www.w3.org/2000/svg" xml:space="preserve" width="6.82666in" height="6.82666in" style="shape-rendering:geometricPrecision; text-rendering:geometricPrecision; image-rendering:optimizeQuality; fill-rule:evenodd; clip-rule:evenodd"
viewBox="0 0 6.82666 6.82666"
 xmlns:xlink="http://www.w3.org/1999/xlink">
 <defs>
  <style type="text/css">
   <![CDATA[
    .fil13.teacher {fill:none}
    .fil6.teacher {fill:#250B01}
    .fil12.teacher {fill:#42A5F5}
    .fill10.teacher {fill:#455A64}
    .fil9.teacher {fill:#546E7A}
    .fil1.teacher {fill:#558B2F}
    .fil0.teacher {fill:#C3895F}
    .fil3.teacher {fill:#E4CFB7}
    .fil5.teacher {fill:#EBE5DF}
    .fill11.teacher {fill:#F45A52}
    .fil4.teacher {fill:#F8E0C6}
    .fil8.teacher {fill:#FFE082}
    .fil7.teacher {fill:white}
    .fil2.teacher {fill:white;fill-rule:nonzero}
   ]]>
  </style>
 </defs>
 <g id="Layer_x0020_1">
  <metadata id="CorelCorpID_0Corel-Layer"/>
  <g id="_198624104">
   <g>
    <polygon id="_198627224" class="fil0 teacher" points="3.98115,1.97447 0.853331,1.97447 0.853331,4.32464 3.98115,4.32464 "/>
    <polygon id="_198627080" class="fil1 teacher" points="3.85083,2.10479 0.983654,2.10479 0.983654,4.19431 3.85083,4.19431 "/>
    <path id="_198626960" class="fil2 teacher" d="M1.41228 2.40275l0.0010748 -0.0112874 0.00159843 -0.0066811c0.0102638,-0.0254567 0.0254291,-0.049126 0.0441142,-0.0698543 0.0312559,-0.0346772 0.0725984,-0.0615118 0.117492,-0.0750906 0.0456457,-0.013811 0.0951181,-0.0140551 0.141823,0.00477559 0.0220827,0.00890945 0.0433898,0.0220039 0.0631732,0.0398346l0.0204331 0.0184134c0.0596378,0.053752 0.0982323,0.0873307 0.139307,0.0998031 0.0406299,0.0123307 0.0885315,0.00545669 0.168748,-0.0209213l1.5748e-005 5.90551e-005c0.203264,-0.0677244 0.323039,-0.0243346 0.438169,0.0173819 0.128492,0.0465472 0.250783,0.0908504 0.492618,-0.0487047 0.028626,-0.0165157 0.10713,-0.00341339 0.194669,0.0206811 0.126504,0.0348228 0.277445,0.0920472 0.310949,0.111937l-0.0244646 0.0413976c-0.0314331,-0.0186614 -0.176323,-0.073248 -0.299094,-0.107043 -0.0767717,-0.0211339 -0.142374,-0.0345 -0.158161,-0.0253898 -0.261173,0.150713 -0.393669,0.102717 -0.532886,0.0522795 -0.107508,-0.0389488 -0.21935,-0.0794646 -0.406858,-0.0169646l-9.44882e-005 9.44882e-005c-0.0901378,0.0296417 -0.145996,0.036752 -0.197531,0.0211063 -0.0511024,-0.0155118 -0.093126,-0.0518937 -0.157559,-0.109965l-0.0204331 -0.0184134c-0.0155354,-0.0140039 -0.0320079,-0.0241811 -0.048878,-0.0309882 -0.0358071,-0.014437 -0.0742362,-0.0141024 -0.11002,-0.00327559 -0.0365354,0.0110512 -0.0701969,0.0329094 -0.0956693,0.0611654 -0.0143031,0.015878 -0.0259646,0.0336614 -0.0340118,0.0525394l-0.000724409 0.00762598 -0.0477992 -0.00451575z"/>
    <path id="_198626888" class="fil2 teacher" d="M1.38402 2.78344l0.0010748 -0.0112913 0.00159843 -0.0066811c0.0102638,-0.0254567 0.0254291,-0.049126 0.0441102,-0.0698543 0.0312559,-0.0346732 0.0726024,-0.0615118 0.117492,-0.0750906 0.0456496,-0.0138071 0.095122,-0.0140551 0.141827,0.00477953 0.0220787,0.00890551 0.0433858,0.022 0.0631732,0.0398307l0.0204291 0.0184134c0.0596417,0.0537559 0.0982323,0.0873307 0.139311,0.0998031 0.0406299,0.0123307 0.0885315,0.00545669 0.168744,-0.0209213l1.9685e-005 5.90551e-005c0.20326,-0.0677205 0.323035,-0.0243346 0.438169,0.0173819 0.128492,0.0465472 0.250783,0.0908504 0.492618,-0.0487008 0.028626,-0.0165197 0.10713,-0.00341339 0.194665,0.0206811 0.126504,0.0348228 0.277445,0.0920433 0.310949,0.111933l-0.0244646 0.0413976c-0.0314291,-0.0186614 -0.176323,-0.073248 -0.299091,-0.107043 -0.0767717,-0.0211299 -0.142374,-0.0344961 -0.158165,-0.0253858 -0.261169,0.150713 -0.393665,0.102713 -0.532882,0.0522756 -0.107512,-0.0389488 -0.219354,-0.0794646 -0.406858,-0.0169646l-9.84252e-005 9.84252e-005c-0.0901378,0.0296417 -0.145996,0.036748 -0.197531,0.0211024 -0.0511024,-0.0155118 -0.093126,-0.0518937 -0.157559,-0.109965l-0.0204291 -0.0184134c-0.0155354,-0.0140039 -0.0320118,-0.0241811 -0.0488819,-0.0309843 -0.0358071,-0.014437 -0.0742362,-0.0141063 -0.11002,-0.00327953 -0.0365354,0.0110512 -0.0701969,0.0329094 -0.0956654,0.0611693 -0.0143071,0.015874 -0.0259646,0.0336575 -0.0340118,0.0525354l-0.000724409 0.00762992 -0.0477992 -0.00451575z"/>
   </g>
   <rect id="_198626720" class="fil3 teacher" x="4.62982" y="3.35701" width="0.409069" height="0.357032"/>
   <path id="_198626624" class="fil4 teacher" d="M4.83809 3.4967c0.122882,0 0.234134,-0.0498071 0.314657,-0.130331 0.0805236,-0.0805236 0.130331,-0.191776 0.130331,-0.314657 0,-0.122886 -0.0498071,-0.234138 -0.130331,-0.314657 -0.0805236,-0.0805276 -0.191772,-0.130335 -0.314657,-0.130335 -0.122886,0 -0.234138,0.0498071 -0.314661,0.130335 -0.0805236,0.0805197 -0.130331,0.191772 -0.130331,0.314657 0,0.122882 0.049811,0.234134 0.130331,0.314657 0.0805236,0.0805236 0.191776,0.130331 0.314661,0.130331z"/>
   <path id="_198626504" class="fil5 teacher" d="M5.24465 3.69122c-0.147835,-0.0682362 -0.246469,-0.11415 -0.431622,-0.11415 -0.185157,0 -0.354713,0.123591 -0.502547,0.191827 -0.119827,0.0553031 -0.0947087,0.210622 -0.174323,0.29837l0.0373858 0.410563 0.147421 -0.0962087 0.430563 0.470571 0.153106 0 0.398079 -0.395646 0.226146 -0.0864606 -0.0288307 -0.468311c-0.0796142,-0.087748 -0.135551,-0.155252 -0.255378,-0.210555z"/>
   <path id="_198626408" class="fil6 teacher" d="M4.35213 3.11627c0.136004,0.246969 0.0982126,-0.0865827 0.132665,-0.240906 0.0287598,8.26772e-005 0.0365433,0.022626 0.110465,0.0494055 0.509512,0.184579 0.448323,-0.441791 0.616362,0.0172008 0.0373504,0.102024 0.027689,0.150154 0.0274685,0.255201 -0.00106299,0.173 0.202472,-0.412248 0.0680591,-0.570272 -0.0217559,-0.0255787 -0.014189,-0.0119409 -0.0231969,-0.0496457 -0.0239331,-0.100173 -0.134433,-0.168472 -0.219657,-0.189453 -0.0392323,-0.00965748 -0.0425787,-0.017126 -0.0894528,-0.0206969 -0.145035,-0.0110512 -0.246051,-0.0221535 -0.39037,0.0364055 -0.139606,0.0566496 -0.227465,0.192665 -0.250827,0.342043 -0.0137992,0.0882441 -0.0196496,0.284508 0.0184843,0.370717z"/>
   <polygon id="_198626048" class="fil3 teacher" points="5.03889,3.62322 4.84435,3.7348 4.62983,3.62322 4.67178,3.55715 4.83605,3.57363 5.00128,3.52616 "/>
   <polygon id="_198626096" class="fil7 teacher" points="2.16068,2.95654 3.38606,4.10097 3.32727,4.18503 2.13501,2.99075 "/>
   <path id="_198625736" class="fil4 teacher" d="M3.51007 4.17652l-0.226646 -0.263709c0,0 -0.0755512,0.00855118 -0.0712717,0.0456142 0,0 -0.108335,0.112606 -0.0641457,0.182457 0,0 0.0488268,0.011689 0.106909,-0.0955039 0,0 0.0684213,0.142543 0.185307,0.218094 0,0 0.0926575,-0.0427638 0.0698465,-0.0869528z"/>
   <polygon id="_198625784" class="fil8 teacher" points="3.56986,4.24985 3.52209,4.18861 3.40235,4.30122 3.48361,4.37677 "/>
   <path id="_198625496" class="fil3 teacher" d="M3.17002 3.9795l-0.162504 0.0755472c0,0 -0.0285118,0.0484685 0.0498898,0.051315 0,0 0.00713386,0.0698504 0.0712756,0.0570197 0,0 -0.00285039,0.0727008 0.0627205,0.0498937 0,0 -0.00427559,0.0840984 0.081252,0.0655669 0,0 0.0955039,-0.0256535 0.142547,0.0185354l0.0655709 -0.0612992 -0.111189 -0.0940787 -0.0470394 0.00855118 -0.00285039 -0.051315 -0.0541693 -0.00997638 -0.00570079 -0.0456181 -0.0228071 -0.0014252 -0.0669961 -0.0627165z"/>
   <path id="_198625352" class="fil9 teacher" d="M4.62769 3.58355l0.196705 1.26865 -0.600126 0 0 -0.394854 -0.176646 0.303465c-0.0331654,0.0593228 -0.0735748,0.0679252 -0.121953,0.0208071l-0.488252 -0.369886 0.153949 -0.188161 0.237732 0.184362c0.0290039,0.028252 0.0490669,0.0227205 0.0609724,-0.0136457l0.23576 -0.560862c0.0145039,-0.0716063 0.419555,-0.213917 0.501858,-0.249874z"/>
   <polygon id="_198625208" class="fill10 teacher" points="4.62769,3.58355 4.48514,3.73322 4.52791,3.88432 4.44808,3.94134 4.82439,4.8522 "/>
   <path id="_198625064" class="fil9 teacher" d="M5.0211 3.58355l-0.196705 1.26865 0.600126 0 0 -0.394854 0.195449 0.394854 0.353362 0 -0.450378 -1.01878c-0.0145039,-0.0716063 -0.419555,-0.213917 -0.501854,-0.249874z"/>
   <polygon id="_198624920" class="fill10 teacher" points="5.0211,3.58355 5.16364,3.73322 5.12088,3.88432 5.2007,3.94134 4.82439,4.8522 "/>
   <g>
    <polygon id="_198624656" class="fill11 teacher" points="4.73701,3.70378 4.78308,3.66249 4.82806,3.663 4.8733,3.66272 4.91911,3.70378 4.82806,3.78539 "/>
    <polygon id="_198624680" class="fill11 teacher" points="4.73701,3.93457 4.82806,3.76836 4.91911,3.93457 4.82806,4.76557 "/>
   </g>
   <g>
    <path id="_198624536" class="fil12 teacher" d="M4.62859 3.5851c0,0 -0.023748,0.116106 0.0218465,0.211984 0,0 0.0636417,-0.107114 0.177622,-0.134083 0,0 -0.143429,0.00449606 -0.199469,-0.0779016z"/>
    <path id="_198624368" class="fil12 teacher" d="M5.02754 3.5851c0,0 0.023748,0.116106 -0.0218465,0.211984 0,0 -0.0636417,-0.107114 -0.177626,-0.134083 0,0 0.143433,0.00449606 0.199472,-0.0779016z"/>
   </g>
   <path id="_198624224" class="fil13 teacher" d="M1.3764 2.36085l0.000964567 -0.0101299c0.0424213,-0.105189 0.191583,-0.174835 0.294555,-0.0820236l0.0183346 0.0165236c0.111354,0.100366 0.144681,0.125551 0.297567,0.0752677 0.38624,-0.128748 0.425945,0.208673 0.839394,-0.0299173 0.0501693,-0.0289488 0.383717,0.0902244 0.432059,0.118933"/>
   <path id="_198624152" class="fil13 teacher" d="M1.35104 2.70249l0.000964567 -0.0101299c0.0424213,-0.105189 0.191583,-0.174835 0.294551,-0.0820236l0.0183386 0.0165236c0.111354,0.100366 0.144681,0.125551 0.297567,0.0752717 0.38624,-0.128748 0.425945,0.208669 0.839394,-0.0299173 0.0501693,-0.0289528 0.383717,0.0902244 0.432059,0.118929"/>
  </g>
 </g>
 <rect class="fil13 teacher" width="6.82666" height="6.82666"/>
</svg>
