<?xml version="1.0" encoding="UTF-8"?>
<!DOCTYPE svg PUBLIC "-//W3C//DTD SVG 1.1//EN" "http://www.w3.org/Graphics/SVG/1.1/DTD/svg11.dtd">
<!-- Creator: CorelDRAW -->
<svg xmlns="http://www.w3.org/2000/svg" xml:space="preserve" width="6.82666in" height="6.82666in" style="shape-rendering:geometricPrecision; text-rendering:geometricPrecision; image-rendering:optimizeQuality; fill-rule:evenodd; clip-rule:evenodd"
viewBox="0 0 6.82666 6.82666"
 xmlns:xlink="http://www.w3.org/1999/xlink">
 <defs>
  <style type="text/css">
   <![CDATA[
    .fil11 {fill:none}
    .fil5 {fill:#243643}
    .fil9 {fill:#2D3F4C}
    .fil6 {fill:#576972}
    .fil0 {fill:#616161}
    .fil7 {fill:#6D7C83}
    .fil8 {fill:#F1B542}
    .fil10 {fill:#FFE082}
    .fil4 {fill:#01579B;fill-rule:nonzero}
    .fil2 {fill:#2D3F4C;fill-rule:nonzero}
    .fil3 {fill:#57ADBB;fill-rule:nonzero}
    .fil1 {fill:#616161;fill-rule:nonzero}
   ]]>
  </style>
 </defs>
 <g id="Layer_x0020_1">
  <metadata id="CorelCorpID_0Corel-Layer"/>
  <g id="_255818824">
   <g>
    <path id="_198339784" class="fil0" d="M2.34608 5.63395l0.297701 0 0 0.190528c0,0.0818701 -0.0669803,0.148854 -0.14885,0.148854l0 0c-0.0818701,0 -0.14885,-0.0669843 -0.14885,-0.148854l0 -0.190528z"/>
    <path id="_198339664" class="fil0" d="M4.18288 5.63395l0.297701 0 0 0.190528c0,0.0818701 -0.0669803,0.148854 -0.14885,0.148854l0 0c-0.0818701,0 -0.14885,-0.0669843 -0.14885,-0.148854l0 -0.190528z"/>
   </g>
   <g>
    <path id="_198339520" class="fil1" d="M3.08 1.03811c0,-0.0423701 -0.0254961,-0.0767205 -0.056937,-0.0767205 -0.0314449,0 -0.056937,0.0343504 -0.056937,0.0767205l0.000795276 1.25939c0,0.0423701 0.0254921,0.0767205 0.0569331,0.0767205 0.0314449,0 0.056937,-0.0343504 0.056937,-0.0767205l-0.000791339 -1.25939z"/>
    <path id="_198339376" class="fil1" d="M3.8639 1.02777c0,-0.0423661 -0.0254961,-0.0767165 -0.056937,-0.0767165 -0.0314449,0 -0.056937,0.0343504 -0.056937,0.0767165l0.000795276 1.25939c0,0.0423701 0.0254961,0.0767205 0.056937,0.0767205 0.0314449,0 0.056937,-0.0343504 0.056937,-0.0767205l-0.000795276 -1.25939z"/>
   </g>
   <path id="_198339256" class="fil2" d="M2.12579 2.25787l2.57508 0c0.0588937,0 0.11239,0.0326378 0.151138,0.0852205 0.038748,0.0525827 0.0627992,0.125185 0.0627992,0.205106l0 2.8435c0,0.0799213 -0.0240512,0.152524 -0.0627992,0.205106 -0.038748,0.0525827 -0.0922441,0.0852205 -0.151138,0.0852205l-2.57508 0c-0.0588937,0 -0.112394,-0.0326378 -0.151142,-0.0852205 -0.038748,-0.0525827 -0.0627992,-0.125185 -0.0627992,-0.205106l0 -2.8435c0,-0.0799213 0.0240512,-0.152524 0.0627992,-0.205106 0.038748,-0.0525827 0.092248,-0.0852205 0.151142,-0.0852205z"/>
   <path id="_198339112" class="fil3" d="M2.85193 2.5845l1.12279 0c0.0315669,0 0.0571614,0.0255945 0.0571614,0.0571614l0 0.229661c0,0.0315669 -0.0255945,0.0571575 -0.0571614,0.0571575l-1.12279 0c-0.0315669,0 -0.0571575,-0.0255906 -0.0571575,-0.0571575l0 -0.229661c0,-0.0315669 0.0255906,-0.0571614 0.0571575,-0.0571614z"/>
   <path id="_198338944" class="fil4" d="M2.65956 0.859535l1.51584 -0.00589764 0 -0.000299213c0.0315669,-0.000122047 0.0572362,0.0342598 0.0573268,0.0767953 3.93701e-006,0.00227953 -7.08661e-005,0.00453937 -0.000208661,0.00676772l0.000543307 0.087689 0.000220472 0c9.05512e-005,0.0425315 -0.0254252,0.0771181 -0.0569921,0.0772402 -0.00169291,7.87402e-006 -0.00337008,-9.44882e-005 -0.00502362,-0.000279528l-1.51584 0.0058937 0 0.000299213c-0.0315669,0.000122047 -0.0572362,-0.0342598 -0.0573268,-0.0767953 -3.93701e-006,-0.00227953 7.08661e-005,-0.00453937 0.000208661,-0.00676772l-0.00053937 -0.087689 -0.000224409 0c-8.66142e-005,-0.0425354 0.0254291,-0.0771181 0.0569961,-0.0772362 0.00169291,-7.87402e-006 0.00337008,9.44882e-005 0.00502362,0.000279528z"/>
   <g>
    <circle id="_198338848" class="fil5" cx="4.39687" cy="4.99136" r="0.284304"/>
    <circle id="_198338752" class="fil6" cx="4.39687" cy="4.99136" r="0.245598"/>
    <circle id="_198338728" class="fil7" cx="4.39687" cy="4.99136" r="0.163731"/>
   </g>
   <path id="_198338248" class="fil8" d="M2.42657 3.19603l3.93701e-006 0c0.0184646,0.00432283 0.0300315,0.0229685 0.0257087,0.0414331l-0.0157205 0.0671496 -0.0671496 -0.0157205 0.0157244 -0.0671496c0.00432283,-0.0184685 0.0229685,-0.0300394 0.0414331,-0.0257126z"/>
   <path id="_198338488" class="fil8" d="M2.34746 3.27764l0.113772 0.0266378 -0.0509882 0.217764c-0.00732283,0.0312874 -0.0389134,0.0508898 -0.0702008,0.043563l-7.87402e-006 0c-0.0312874,-0.00732677 -0.0508898,-0.0389134 -0.043563,-0.0702047l0.0509882 -0.21776z"/>
   <circle id="_198338344" class="fil9" transform="matrix(0.695665 0.162886 -0.162886 0.695666 2.35667 3.49458)" r="0.040622"/>
   <g>
    <g>
     <g>
      <path id="_198338152" class="fil10" d="M4.35935 3.19688l0.0137402 0c0.00480709,0 0.00874409,0.00393307 0.00874409,0.00874409l0 0.0254803c0,0.00481102 -0.00393701,0.00874409 -0.00874409,0.00874409l0 0c-0.00481102,0 -0.00874409,-0.00393307 -0.00874409,-0.00874409l0 -0.0167362 -0.00499606 0c-0.00481102,0 -0.00874409,-0.00393307 -0.00874409,-0.00874409l0 0c0,-0.00481102 0.00393307,-0.00874409 0.00874409,-0.00874409zm0.0224843 0.00874409l0 0z"/>
      <path id="_198338104" class="fil10" d="M4.36609 3.26408l-0.0137402 0c-0.00481102,0 -0.00874409,-0.00393307 -0.00874409,-0.00874016l0 -0.0254843c0,-0.00481102 0.00393307,-0.00874409 0.00874409,-0.00874409l0 0c0.00480709,0 0.00874409,0.00393307 0.00874409,0.00874409l0 0.0167402 0.00499606 0c0.00481102,0 0.00874409,0.00393307 0.00874409,0.00874409l0 0c0,0.00480709 -0.00393307,0.00874016 -0.00874409,0.00874016zm-0.0224843 -0.00874016l0 0z"/>
     </g>
     <g>
      <path id="_198337816" class="fil10" d="M4.31526 3.19688l0.0137402 0c0.00481102,0 0.00874409,0.00393307 0.00874409,0.00874409l0 0.0254803c0,0.00481102 -0.00393307,0.00874409 -0.00874409,0.00874409l0 0c-0.00481102,0 -0.00874409,-0.00393307 -0.00874409,-0.00874409l0 -0.0167362 -0.00499606 0c-0.00481102,0 -0.00874409,-0.00393307 -0.00874409,-0.00874409l0 0c0,-0.00481102 0.00393307,-0.00874409 0.00874409,-0.00874409zm0.0224843 0.00874409l0 0z"/>
      <path id="_198337768" class="fil10" d="M4.322 3.26408l-0.0137402 0c-0.00481102,0 -0.00874409,-0.00393307 -0.00874409,-0.00874016l0 -0.0254843c0,-0.00481102 0.00393307,-0.00874409 0.00874409,-0.00874409l0 0c0.00481102,0 0.00874409,0.00393307 0.00874409,0.00874409l0 0.0167402 0.00499606 0c0.00481102,0 0.00874409,0.00393307 0.00874409,0.00874409l0 0c0,0.00480709 -0.00393307,0.00874016 -0.00874409,0.00874016zm-0.0224843 -0.00874016l0 0z"/>
     </g>
     <g>
      <path id="_198337480" class="fil10" d="M4.27116 3.19688l0.0137402 0c0.00481102,0 0.00874409,0.00393307 0.00874409,0.00874409l0 0.0254803c0,0.00481102 -0.00393307,0.00874409 -0.00874409,0.00874409l0 0c-0.00481102,0 -0.00874409,-0.00393307 -0.00874409,-0.00874409l0 -0.0167362 -0.00499606 0c-0.00481102,0 -0.00874409,-0.00393307 -0.00874409,-0.00874409l0 0c0,-0.00481102 0.00393307,-0.00874409 0.00874409,-0.00874409zm0.0224843 0.00874409l0 0z"/>
      <path id="_198337432" class="fil10" d="M4.27791 3.26408l-0.0137402 0c-0.00480709,0 -0.00874409,-0.00393307 -0.00874409,-0.00874016l0 -0.0254843c0,-0.00481102 0.00393701,-0.00874409 0.00874409,-0.00874409l0 0c0.00481102,0 0.00874409,0.00393307 0.00874409,0.00874409l0 0.0167402 0.00499606 0c0.00481102,0 0.00874409,0.00393307 0.00874409,0.00874409l0 0c0,0.00480709 -0.00393307,0.00874016 -0.00874409,0.00874016zm-0.0224843 -0.00874016l0 0z"/>
     </g>
     <g>
      <path id="_198337144" class="fil10" d="M4.22707 3.19688l0.0137402 0c0.00481102,0 0.00874409,0.00393307 0.00874409,0.00874409l0 0.0254803c0,0.00481102 -0.00393307,0.00874409 -0.00874409,0.00874409l0 0c-0.00480709,0 -0.00874409,-0.00393307 -0.00874409,-0.00874409l0 -0.0167362 -0.00499606 0c-0.00480709,0 -0.00874409,-0.00393307 -0.00874409,-0.00874409l0 0c0,-0.00481102 0.00393701,-0.00874409 0.00874409,-0.00874409zm0.0224843 0.00874409l0 0z"/>
      <path id="_198337096" class="fil10" d="M4.23381 3.26408l-0.0137402 0c-0.00480709,0 -0.00874409,-0.00393307 -0.00874409,-0.00874016l0 -0.0254843c0,-0.00481102 0.00393701,-0.00874409 0.00874409,-0.00874409l0 0c0.00481102,0 0.00874409,0.00393307 0.00874409,0.00874409l0 0.0167402 0.00499606 0c0.00481102,0 0.00874409,0.00393307 0.00874409,0.00874409l0 0c0,0.00480709 -0.00393307,0.00874016 -0.00874409,0.00874016zm-0.0224843 -0.00874016l0 0z"/>
     </g>
     <g>
      <path id="_198336808" class="fil10" d="M4.18297 3.19688l0.0137402 0c0.00481102,0 0.00874409,0.00393307 0.00874409,0.00874409l0 0.0254803c0,0.00481102 -0.00393307,0.00874409 -0.00874409,0.00874409l0 0c-0.00480709,0 -0.00874409,-0.00393307 -0.00874409,-0.00874409l0 -0.0167362 -0.00499606 0c-0.00480709,0 -0.00874409,-0.00393307 -0.00874409,-0.00874409l0 0c0,-0.00481102 0.00393701,-0.00874409 0.00874409,-0.00874409zm0.0224843 0.00874409l0 0z"/>
      <path id="_198336760" class="fil10" d="M4.18972 3.26408l-0.0137441 0c-0.00480709,0 -0.00874409,-0.00393307 -0.00874409,-0.00874016l0 -0.0254843c0,-0.00481102 0.00393701,-0.00874409 0.00874409,-0.00874409l0 0c0.00481102,0 0.00874409,0.00393307 0.00874409,0.00874409l0 0.0167402 0.005 0c0.00480709,0 0.00874016,0.00393307 0.00874016,0.00874409l0 0c0,0.00480709 -0.00393307,0.00874016 -0.00874016,0.00874016zm-0.0224882 -0.00874016l0 0z"/>
     </g>
     <g>
      <path id="_198336472" class="fil10" d="M4.13888 3.19688l0.0137441 0c0.00480709,0 0.00874409,0.00393307 0.00874409,0.00874409l0 0.0254803c0,0.00481102 -0.00393701,0.00874409 -0.00874409,0.00874409l0 0c-0.00481102,0 -0.00874409,-0.00393307 -0.00874409,-0.00874409l0 -0.0167362 -0.005 0c-0.00480709,0 -0.00874016,-0.00393307 -0.00874016,-0.00874409l0 0c0,-0.00481102 0.00393307,-0.00874409 0.00874016,-0.00874409zm0.0224882 0.00874409l0 0z"/>
      <path id="_198336424" class="fil10" d="M4.14563 3.26408l-0.0137402 0c-0.00481102,0 -0.00874409,-0.00393307 -0.00874409,-0.00874016l0 -0.0254843c0,-0.00481102 0.00393307,-0.00874409 0.00874409,-0.00874409l0 0c0.00480709,0 0.00874409,0.00393307 0.00874409,0.00874409l0 0.0167402 0.00499606 0c0.00480709,0 0.00874409,0.00393307 0.00874409,0.00874409l0 0c0,0.00480709 -0.00393701,0.00874016 -0.00874409,0.00874016zm-0.0224843 -0.00874016l0 0z"/>
     </g>
     <g>
      <path id="_198336136" class="fil10" d="M4.09479 3.19688l0.0137402 0c0.00480709,0 0.00874409,0.00393307 0.00874409,0.00874409l0 0.0254803c0,0.00481102 -0.00393701,0.00874409 -0.00874409,0.00874409l0 0c-0.00481102,0 -0.00874409,-0.00393307 -0.00874409,-0.00874409l0 -0.0167362 -0.00499606 0c-0.00481102,0 -0.00874409,-0.00393307 -0.00874409,-0.00874409l0 0c0,-0.00481102 0.00393307,-0.00874409 0.00874409,-0.00874409zm0.0224843 0.00874409l0 0z"/>
      <path id="_198336088" class="fil10" d="M4.10153 3.26408l-0.0137402 0c-0.00481102,0 -0.00874409,-0.00393307 -0.00874409,-0.00874016l0 -0.0254843c0,-0.00481102 0.00393307,-0.00874409 0.00874409,-0.00874409l0 0c0.00480709,0 0.00874409,0.00393307 0.00874409,0.00874409l0 0.0167402 0.00499606 0c0.00480709,0 0.00874409,0.00393307 0.00874409,0.00874409l0 0c0,0.00480709 -0.00393701,0.00874016 -0.00874409,0.00874016zm-0.0224843 -0.00874016l0 0z"/>
     </g>
     <g>
      <path id="_198335800" class="fil10" d="M4.05069 3.19688l0.0137402 0c0.00480709,0 0.00874409,0.00393307 0.00874409,0.00874409l0 0.0254803c0,0.00481102 -0.00393701,0.00874409 -0.00874409,0.00874409l0 0c-0.00481102,0 -0.00874409,-0.00393307 -0.00874409,-0.00874409l0 -0.0167362 -0.00499606 0c-0.00481102,0 -0.00874409,-0.00393307 -0.00874409,-0.00874409l0 0c0,-0.00481102 0.00393307,-0.00874409 0.00874409,-0.00874409zm0.0224843 0.00874409l0 0z"/>
      <path id="_198335752" class="fil10" d="M4.05744 3.26408l-0.0137402 0c-0.00481102,0 -0.00874409,-0.00393307 -0.00874409,-0.00874016l0 -0.0254843c0,-0.00481102 0.00393307,-0.00874409 0.00874409,-0.00874409l0 0c0.00481102,0 0.00874409,0.00393307 0.00874409,0.00874409l0 0.0167402 0.00499606 0c0.00481102,0 0.00874409,0.00393307 0.00874409,0.00874409l0 0c0,0.00480709 -0.00393307,0.00874016 -0.00874409,0.00874016zm-0.0224843 -0.00874016l0 0z"/>
     </g>
     <g>
      <path id="_256716104" class="fil10" d="M4.0066 3.19688l0.0137402 0c0.00481102,0 0.00874409,0.00393307 0.00874409,0.00874409l0 0.0254803c0,0.00481102 -0.00393307,0.00874409 -0.00874409,0.00874409l0 0c-0.00481102,0 -0.00874409,-0.00393307 -0.00874409,-0.00874409l0 -0.0167362 -0.00499606 0c-0.00481102,0 -0.00874409,-0.00393307 -0.00874409,-0.00874409l0 0c0,-0.00481102 0.00393307,-0.00874409 0.00874409,-0.00874409zm0.0224843 0.00874409l0 0z"/>
      <path id="_256716056" class="fil10" d="M4.01334 3.26408l-0.0137402 0c-0.00481102,0 -0.00874409,-0.00393307 -0.00874409,-0.00874016l0 -0.0254843c0,-0.00481102 0.00393307,-0.00874409 0.00874409,-0.00874409l0 0c0.00481102,0 0.00874409,0.00393307 0.00874409,0.00874409l0 0.0167402 0.00499606 0c0.00481102,0 0.00874409,0.00393307 0.00874409,0.00874409l0 0c0,0.00480709 -0.00393307,0.00874016 -0.00874409,0.00874016zm-0.0224843 -0.00874016l0 0z"/>
     </g>
     <g>
      <path id="_256715768" class="fil10" d="M3.9625 3.19688l0.0137402 0c0.00481102,0 0.00874409,0.00393307 0.00874409,0.00874409l0 0.0254803c0,0.00481102 -0.00393307,0.00874409 -0.00874409,0.00874409l0 0c-0.00480709,0 -0.00874409,-0.00393307 -0.00874409,-0.00874409l0 -0.0167362 -0.00499606 0c-0.00481102,0 -0.00874409,-0.00393307 -0.00874409,-0.00874409l0 0c0,-0.00481102 0.00393307,-0.00874409 0.00874409,-0.00874409zm0.0224843 0.00874409l0 0z"/>
      <path id="_256715720" class="fil10" d="M3.96925 3.26408l-0.0137402 0c-0.00480709,0 -0.00874409,-0.00393307 -0.00874409,-0.00874016l0 -0.0254843c0,-0.00481102 0.00393701,-0.00874409 0.00874409,-0.00874409l0 0c0.00481102,0 0.00874409,0.00393307 0.00874409,0.00874409l0 0.0167402 0.00499606 0c0.00481102,0 0.00874409,0.00393307 0.00874409,0.00874409l0 0c0,0.00480709 -0.00393307,0.00874016 -0.00874409,0.00874016zm-0.0224843 -0.00874016l0 0z"/>
     </g>
     <g>
      <path id="_256715432" class="fil10" d="M3.91841 3.19688l0.0137402 0c0.00481102,0 0.00874409,0.00393307 0.00874409,0.00874409l0 0.0254803c0,0.00481102 -0.00393307,0.00874409 -0.00874409,0.00874409l0 0c-0.00480709,0 -0.00874409,-0.00393307 -0.00874409,-0.00874409l0 -0.0167362 -0.00499606 0c-0.00480709,0 -0.00874409,-0.00393307 -0.00874409,-0.00874409l0 0c0,-0.00481102 0.00393701,-0.00874409 0.00874409,-0.00874409zm0.0224843 0.00874409l0 0z"/>
      <path id="_256715384" class="fil10" d="M3.92516 3.26408l-0.0137441 0c-0.00480709,0 -0.00874409,-0.00393307 -0.00874409,-0.00874016l0 -0.0254843c0,-0.00481102 0.00393701,-0.00874409 0.00874409,-0.00874409l0 0c0.00481102,0 0.00874409,0.00393307 0.00874409,0.00874409l0 0.0167402 0.005 0c0.00480709,0 0.00874016,0.00393307 0.00874016,0.00874409l0 0c0,0.00480709 -0.00393307,0.00874016 -0.00874016,0.00874016zm-0.0224882 -0.00874016l0 0z"/>
     </g>
     <g>
      <path id="_256715096" class="fil10" d="M3.87431 3.19688l0.0137441 0c0.00480709,0 0.00874016,0.00393307 0.00874016,0.00874409l0 0.0254803c0,0.00481102 -0.00393307,0.00874409 -0.00874016,0.00874409l0 0c-0.00481102,0 -0.00874409,-0.00393307 -0.00874409,-0.00874409l0 -0.0167362 -0.005 0c-0.00480709,0 -0.00874409,-0.00393307 -0.00874409,-0.00874409l0 0c0,-0.00481102 0.00393701,-0.00874409 0.00874409,-0.00874409zm0.0224843 0.00874409l0 0z"/>
      <path id="_256715048" class="fil10" d="M3.88106 3.26408l-0.0137402 0c-0.00481102,0 -0.00874409,-0.00393307 -0.00874409,-0.00874016l0 -0.0254843c0,-0.00481102 0.00393307,-0.00874409 0.00874409,-0.00874409l0 0c0.00480709,0 0.00874016,0.00393307 0.00874016,0.00874409l0 0.0167402 0.005 0c0.00480709,0 0.00874409,0.00393307 0.00874409,0.00874409l0 0c0,0.00480709 -0.00393701,0.00874016 -0.00874409,0.00874016zm-0.0224843 -0.00874016l0 0z"/>
     </g>
     <g>
      <path id="_256714760" class="fil10" d="M3.83022 3.19688l0.0137402 0c0.00480709,0 0.00874409,0.00393307 0.00874409,0.00874409l0 0.0254803c0,0.00481102 -0.00393701,0.00874409 -0.00874409,0.00874409l0 0c-0.00481102,0 -0.00874409,-0.00393307 -0.00874409,-0.00874409l0 -0.0167362 -0.00499606 0c-0.00481102,0 -0.00874409,-0.00393307 -0.00874409,-0.00874409l0 0c0,-0.00481102 0.00393307,-0.00874409 0.00874409,-0.00874409zm0.0224843 0.00874409l0 0z"/>
      <path id="_256714712" class="fil10" d="M3.83697 3.26408l-0.0137402 0c-0.00481102,0 -0.00874409,-0.00393307 -0.00874409,-0.00874016l0 -0.0254843c0,-0.00481102 0.00393307,-0.00874409 0.00874409,-0.00874409l0 0c0.00480709,0 0.00874409,0.00393307 0.00874409,0.00874409l0 0.0167402 0.00499606 0c0.00480709,0 0.00874409,0.00393307 0.00874409,0.00874409l0 0c0,0.00480709 -0.00393701,0.00874016 -0.00874409,0.00874016zm-0.0224843 -0.00874016l0 0z"/>
     </g>
     <g>
      <path id="_256714424" class="fil10" d="M3.78613 3.19688l0.0137402 0c0.00480709,0 0.00874409,0.00393307 0.00874409,0.00874409l0 0.0254803c0,0.00481102 -0.00393701,0.00874409 -0.00874409,0.00874409l0 0c-0.00481102,0 -0.00874409,-0.00393307 -0.00874409,-0.00874409l0 -0.0167362 -0.00499606 0c-0.00481102,0 -0.00874409,-0.00393307 -0.00874409,-0.00874409l0 0c0,-0.00481102 0.00393307,-0.00874409 0.00874409,-0.00874409zm0.0224843 0.00874409l0 0z"/>
      <path id="_256714376" class="fil10" d="M3.79287 3.26408l-0.0137402 0c-0.00481102,0 -0.00874409,-0.00393307 -0.00874409,-0.00874016l0 -0.0254843c0,-0.00481102 0.00393307,-0.00874409 0.00874409,-0.00874409l0 0c0.00480709,0 0.00874409,0.00393307 0.00874409,0.00874409l0 0.0167402 0.00499606 0c0.00481102,0 0.00874409,0.00393307 0.00874409,0.00874409l0 0c0,0.00480709 -0.00393307,0.00874016 -0.00874409,0.00874016zm-0.0224843 -0.00874016l0 0z"/>
     </g>
     <g>
      <path id="_256714088" class="fil10" d="M3.74204 3.19688l0.0137402 0c0.00481102,0 0.00874409,0.00393307 0.00874409,0.00874409l0 0.0254803c0,0.00481102 -0.00393307,0.00874409 -0.00874409,0.00874409l0 0c-0.00481102,0 -0.00874409,-0.00393307 -0.00874409,-0.00874409l0 -0.0167362 -0.00499606 0c-0.00481102,0 -0.00874409,-0.00393307 -0.00874409,-0.00874409l0 0c0,-0.00481102 0.00393307,-0.00874409 0.00874409,-0.00874409zm0.0224843 0.00874409l0 0z"/>
      <path id="_256714040" class="fil10" d="M3.74878 3.26408l-0.0137402 0c-0.00481102,0 -0.00874409,-0.00393307 -0.00874409,-0.00874016l0 -0.0254843c0,-0.00481102 0.00393307,-0.00874409 0.00874409,-0.00874409l0 0c0.00481102,0 0.00874409,0.00393307 0.00874409,0.00874409l0 0.0167402 0.00499606 0c0.00481102,0 0.00874409,0.00393307 0.00874409,0.00874409l0 0c0,0.00480709 -0.00393307,0.00874016 -0.00874409,0.00874016zm-0.0224843 -0.00874016l0 0z"/>
     </g>
     <g>
      <path id="_256713752" class="fil10" d="M3.69794 3.19688l0.0137402 0c0.00481102,0 0.00874409,0.00393307 0.00874409,0.00874409l0 0.0254803c0,0.00481102 -0.00393307,0.00874409 -0.00874409,0.00874409l0 0c-0.00480709,0 -0.00874409,-0.00393307 -0.00874409,-0.00874409l0 -0.0167362 -0.00499606 0c-0.00481102,0 -0.00874409,-0.00393307 -0.00874409,-0.00874409l0 0c0,-0.00481102 0.00393307,-0.00874409 0.00874409,-0.00874409zm0.0224843 0.00874409l0 0z"/>
      <path id="_256713704" class="fil10" d="M3.70469 3.26408l-0.0137402 0c-0.00480709,0 -0.00874409,-0.00393307 -0.00874409,-0.00874016l0 -0.0254843c0,-0.00481102 0.00393701,-0.00874409 0.00874409,-0.00874409l0 0c0.00481102,0 0.00874409,0.00393307 0.00874409,0.00874409l0 0.0167402 0.00499606 0c0.00481102,0 0.00874409,0.00393307 0.00874409,0.00874409l0 0c0,0.00480709 -0.00393307,0.00874016 -0.00874409,0.00874016zm-0.0224843 -0.00874016l0 0z"/>
     </g>
     <g>
      <path id="_256713416" class="fil10" d="M3.65385 3.19688l0.0137402 0c0.00481102,0 0.00874409,0.00393307 0.00874409,0.00874409l0 0.0254803c0,0.00481102 -0.00393307,0.00874409 -0.00874409,0.00874409l0 0c-0.00480709,0 -0.00874409,-0.00393307 -0.00874409,-0.00874409l0 -0.0167362 -0.00499606 0c-0.00480709,0 -0.00874409,-0.00393307 -0.00874409,-0.00874409l0 0c0,-0.00481102 0.00393701,-0.00874409 0.00874409,-0.00874409zm0.0224843 0.00874409l0 0z"/>
      <path id="_256713368" class="fil10" d="M3.66059 3.26408l-0.0137402 0c-0.00480709,0 -0.00874409,-0.00393307 -0.00874409,-0.00874016l0 -0.0254843c0,-0.00481102 0.00393701,-0.00874409 0.00874409,-0.00874409l0 0c0.00481102,0 0.00874409,0.00393307 0.00874409,0.00874409l0 0.0167402 0.00499606 0c0.00481102,0 0.00874409,0.00393307 0.00874409,0.00874409l0 0c0,0.00480709 -0.00393307,0.00874016 -0.00874409,0.00874016zm-0.0224843 -0.00874016l0 0z"/>
     </g>
     <g>
      <path id="_256713080" class="fil10" d="M3.60975 3.19688l0.0137402 0c0.00481102,0 0.00874409,0.00393307 0.00874409,0.00874409l0 0.0254803c0,0.00481102 -0.00393307,0.00874409 -0.00874409,0.00874409l0 0c-0.00480709,0 -0.00874016,-0.00393307 -0.00874016,-0.00874409l0 -0.0167362 -0.005 0c-0.00480709,0 -0.00874409,-0.00393307 -0.00874409,-0.00874409l0 0c0,-0.00481102 0.00393701,-0.00874409 0.00874409,-0.00874409zm0.0224843 0.00874409l0 0z"/>
      <path id="_256713032" class="fil10" d="M3.6165 3.26408l-0.0137441 0c-0.00480709,0 -0.00874016,-0.00393307 -0.00874016,-0.00874016l0 -0.0254843c0,-0.00481102 0.00393307,-0.00874409 0.00874016,-0.00874409l0 0c0.00481102,0 0.00874409,0.00393307 0.00874409,0.00874409l0 0.0167402 0.005 0c0.00480709,0 0.00874409,0.00393307 0.00874409,0.00874409l0 0c0,0.00480709 -0.00393701,0.00874016 -0.00874409,0.00874016zm-0.0224843 -0.00874016l0 0z"/>
     </g>
     <g>
      <path id="_256712744" class="fil10" d="M3.56566 3.19688l0.0137402 0c0.00480709,0 0.00874409,0.00393307 0.00874409,0.00874409l0 0.0254803c0,0.00481102 -0.00393701,0.00874409 -0.00874409,0.00874409l0 0c-0.00481102,0 -0.00874409,-0.00393307 -0.00874409,-0.00874409l0 -0.0167362 -0.00499606 0c-0.00481102,0 -0.00874409,-0.00393307 -0.00874409,-0.00874409l0 0c0,-0.00481102 0.00393307,-0.00874409 0.00874409,-0.00874409zm0.0224843 0.00874409l0 0z"/>
      <path id="_256712696" class="fil10" d="M3.57241 3.26408l-0.0137402 0c-0.00481102,0 -0.00874409,-0.00393307 -0.00874409,-0.00874016l0 -0.0254843c0,-0.00481102 0.00393307,-0.00874409 0.00874409,-0.00874409l0 0c0.00480709,0 0.00874409,0.00393307 0.00874409,0.00874409l0 0.0167402 0.00499606 0c0.00480709,0 0.00874409,0.00393307 0.00874409,0.00874409l0 0c0,0.00480709 -0.00393701,0.00874016 -0.00874409,0.00874016zm-0.0224843 -0.00874016l0 0z"/>
     </g>
     <g>
      <path id="_256712408" class="fil10" d="M3.52157 3.19688l0.0137402 0c0.00480709,0 0.00874409,0.00393307 0.00874409,0.00874409l0 0.0254803c0,0.00481102 -0.00393701,0.00874409 -0.00874409,0.00874409l0 0c-0.00481102,0 -0.00874409,-0.00393307 -0.00874409,-0.00874409l0 -0.0167362 -0.00499606 0c-0.00481102,0 -0.00874409,-0.00393307 -0.00874409,-0.00874409l0 0c0,-0.00481102 0.00393307,-0.00874409 0.00874409,-0.00874409zm0.0224843 0.00874409l0 0z"/>
      <path id="_256712360" class="fil10" d="M3.52831 3.26408l-0.0137402 0c-0.00481102,0 -0.00874409,-0.00393307 -0.00874409,-0.00874016l0 -0.0254843c0,-0.00481102 0.00393307,-0.00874409 0.00874409,-0.00874409l0 0c0.00480709,0 0.00874409,0.00393307 0.00874409,0.00874409l0 0.0167402 0.00499606 0c0.00481102,0 0.00874409,0.00393307 0.00874409,0.00874409l0 0c0,0.00480709 -0.00393307,0.00874016 -0.00874409,0.00874016zm-0.0224843 -0.00874016l0 0z"/>
     </g>
     <g>
      <path id="_256712072" class="fil10" d="M3.47747 3.19688l0.0137402 0c0.00481102,0 0.00874409,0.00393307 0.00874409,0.00874409l0 0.0254803c0,0.00481102 -0.00393307,0.00874409 -0.00874409,0.00874409l0 0c-0.00481102,0 -0.00874409,-0.00393307 -0.00874409,-0.00874409l0 -0.0167362 -0.00499606 0c-0.00481102,0 -0.00874409,-0.00393307 -0.00874409,-0.00874409l0 0c0,-0.00481102 0.00393307,-0.00874409 0.00874409,-0.00874409zm0.0224843 0.00874409l0 0z"/>
      <path id="_256712024" class="fil10" d="M3.48422 3.26408l-0.0137402 0c-0.00481102,0 -0.00874409,-0.00393307 -0.00874409,-0.00874016l0 -0.0254843c0,-0.00481102 0.00393307,-0.00874409 0.00874409,-0.00874409l0 0c0.00481102,0 0.00874409,0.00393307 0.00874409,0.00874409l0 0.0167402 0.00499606 0c0.00481102,0 0.00874409,0.00393307 0.00874409,0.00874409l0 0c0,0.00480709 -0.00393307,0.00874016 -0.00874409,0.00874016zm-0.0224843 -0.00874016l0 0z"/>
     </g>
     <g>
      <path id="_256711688" class="fil10" d="M3.43338 3.19688l0.0137402 0c0.00481102,0 0.00874409,0.00393307 0.00874409,0.00874409l0 0.0254803c0,0.00481102 -0.00393307,0.00874409 -0.00874409,0.00874409l0 0c-0.00480709,0 -0.00874409,-0.00393307 -0.00874409,-0.00874409l0 -0.0167362 -0.00499606 0c-0.00481102,0 -0.00874409,-0.00393307 -0.00874409,-0.00874409l0 0c0,-0.00481102 0.00393307,-0.00874409 0.00874409,-0.00874409zm0.0224843 0.00874409l0 0z"/>
      <path id="_256711808" class="fil10" d="M3.44012 3.26408l-0.0137402 0c-0.00480709,0 -0.00874409,-0.00393307 -0.00874409,-0.00874016l0 -0.0254843c0,-0.00481102 0.00393701,-0.00874409 0.00874409,-0.00874409l0 0c0.00481102,0 0.00874409,0.00393307 0.00874409,0.00874409l0 0.0167402 0.00499606 0c0.00481102,0 0.00874409,0.00393307 0.00874409,0.00874409l0 0c0,0.00480709 -0.00393307,0.00874016 -0.00874409,0.00874016zm-0.0224843 -0.00874016l0 0z"/>
     </g>
    </g>
    <g>
     <g>
      <path id="_256711352" class="fil10" d="M3.38654 3.19688l0.0137402 0c0.00480709,0 0.00874409,0.00393307 0.00874409,0.00874409l0 0.0254803c0,0.00481102 -0.00393701,0.00874409 -0.00874409,0.00874409l0 0c-0.00481102,0 -0.00874409,-0.00393307 -0.00874409,-0.00874409l0 -0.0167362 -0.00499606 0c-0.00481102,0 -0.00874409,-0.00393307 -0.00874409,-0.00874409l0 0c0,-0.00481102 0.00393307,-0.00874409 0.00874409,-0.00874409zm0.0224843 0.00874409l0 0z"/>
      <path id="_256711304" class="fil10" d="M3.39329 3.26408l-0.0137402 0c-0.00481102,0 -0.00874409,-0.00393307 -0.00874409,-0.00874016l0 -0.0254843c0,-0.00481102 0.00393307,-0.00874409 0.00874409,-0.00874409l0 0c0.00480709,0 0.00874409,0.00393307 0.00874409,0.00874409l0 0.0167402 0.00499606 0c0.00481102,0 0.00874409,0.00393307 0.00874409,0.00874409l0 0c0,0.00480709 -0.00393307,0.00874016 -0.00874409,0.00874016zm-0.0224843 -0.00874016l0 0z"/>
     </g>
     <g>
      <path id="_256711016" class="fil10" d="M3.34245 3.19688l0.0137402 0c0.00481102,0 0.00874409,0.00393307 0.00874409,0.00874409l0 0.0254803c0,0.00481102 -0.00393307,0.00874409 -0.00874409,0.00874409l0 0c-0.00481102,0 -0.00874409,-0.00393307 -0.00874409,-0.00874409l0 -0.0167362 -0.00499606 0c-0.00481102,0 -0.00874409,-0.00393307 -0.00874409,-0.00874409l0 0c0,-0.00481102 0.00393307,-0.00874409 0.00874409,-0.00874409zm0.0224843 0.00874409l0 0z"/>
      <path id="_256710968" class="fil10" d="M3.34919 3.26408l-0.0137402 0c-0.00481102,0 -0.00874409,-0.00393307 -0.00874409,-0.00874016l0 -0.0254843c0,-0.00481102 0.00393307,-0.00874409 0.00874409,-0.00874409l0 0c0.00481102,0 0.00874409,0.00393307 0.00874409,0.00874409l0 0.0167402 0.00499606 0c0.00481102,0 0.00874409,0.00393307 0.00874409,0.00874409l0 0c0,0.00480709 -0.00393307,0.00874016 -0.00874409,0.00874016zm-0.0224843 -0.00874016l0 0z"/>
     </g>
     <g>
      <path id="_256710680" class="fil10" d="M3.29835 3.19688l0.0137402 0c0.00481102,0 0.00874409,0.00393307 0.00874409,0.00874409l0 0.0254803c0,0.00481102 -0.00393307,0.00874409 -0.00874409,0.00874409l0 0c-0.00481102,0 -0.00874409,-0.00393307 -0.00874409,-0.00874409l0 -0.0167362 -0.00499606 0c-0.00481102,0 -0.00874409,-0.00393307 -0.00874409,-0.00874409l0 0c0,-0.00481102 0.00393307,-0.00874409 0.00874409,-0.00874409zm0.0224843 0.00874409l0 0z"/>
      <path id="_256710632" class="fil10" d="M3.3051 3.26408l-0.0137402 0c-0.00481102,0 -0.00874409,-0.00393307 -0.00874409,-0.00874016l0 -0.0254843c0,-0.00481102 0.00393307,-0.00874409 0.00874409,-0.00874409l0 0c0.00481102,0 0.00874409,0.00393307 0.00874409,0.00874409l0 0.0167402 0.00499606 0c0.00481102,0 0.00874409,0.00393307 0.00874409,0.00874409l0 0c0,0.00480709 -0.00393307,0.00874016 -0.00874409,0.00874016zm-0.0224843 -0.00874016l0 0z"/>
     </g>
     <g>
      <path id="_256710344" class="fil10" d="M3.25426 3.19688l0.0137402 0c0.00481102,0 0.00874409,0.00393307 0.00874409,0.00874409l0 0.0254803c0,0.00481102 -0.00393307,0.00874409 -0.00874409,0.00874409l0 0c-0.00480709,0 -0.00874409,-0.00393307 -0.00874409,-0.00874409l0 -0.0167362 -0.00499606 0c-0.00480709,0 -0.00874409,-0.00393307 -0.00874409,-0.00874409l0 0c0,-0.00481102 0.00393701,-0.00874409 0.00874409,-0.00874409zm0.0224843 0.00874409l0 0z"/>
      <path id="_256710296" class="fil10" d="M3.261 3.26408l-0.0137402 0c-0.00480709,0 -0.00874409,-0.00393307 -0.00874409,-0.00874016l0 -0.0254843c0,-0.00481102 0.00393701,-0.00874409 0.00874409,-0.00874409l0 0c0.00481102,0 0.00874409,0.00393307 0.00874409,0.00874409l0 0.0167402 0.00499606 0c0.00481102,0 0.00874409,0.00393307 0.00874409,0.00874409l0 0c0,0.00480709 -0.00393307,0.00874016 -0.00874409,0.00874016zm-0.0224843 -0.00874016l0 0z"/>
     </g>
     <g>
      <path id="_256710008" class="fil10" d="M3.21017 3.19688l0.0137402 0c0.00481102,0 0.00874409,0.00393307 0.00874409,0.00874409l0 0.0254803c0,0.00481102 -0.00393307,0.00874409 -0.00874409,0.00874409l0 0c-0.00480709,0 -0.00874409,-0.00393307 -0.00874409,-0.00874409l0 -0.0167362 -0.00499606 0c-0.00480709,0 -0.00874409,-0.00393307 -0.00874409,-0.00874409l0 0c0,-0.00481102 0.00393701,-0.00874409 0.00874409,-0.00874409zm0.0224843 0.00874409l0 0z"/>
      <path id="_256709960" class="fil10" d="M3.21691 3.26408l-0.0137441 0c-0.00480709,0 -0.00874409,-0.00393307 -0.00874409,-0.00874016l0 -0.0254843c0,-0.00481102 0.00393701,-0.00874409 0.00874409,-0.00874409l0 0c0.00481102,0 0.00874409,0.00393307 0.00874409,0.00874409l0 0.0167402 0.005 0c0.00480709,0 0.00874016,0.00393307 0.00874016,0.00874409l0 0c0,0.00480709 -0.00393307,0.00874016 -0.00874016,0.00874016zm-0.0224882 -0.00874016l0 0z"/>
     </g>
     <g>
      <path id="_256709672" class="fil10" d="M3.16607 3.19688l0.0137441 0c0.00480709,0 0.00874016,0.00393307 0.00874016,0.00874409l0 0.0254803c0,0.00481102 -0.00393307,0.00874409 -0.00874016,0.00874409l0 0c-0.00481102,0 -0.00874409,-0.00393307 -0.00874409,-0.00874409l0 -0.0167362 -0.005 0c-0.00480709,0 -0.00874409,-0.00393307 -0.00874409,-0.00874409l0 0c0,-0.00481102 0.00393701,-0.00874409 0.00874409,-0.00874409zm0.0224843 0.00874409l0 0z"/>
      <path id="_256709624" class="fil10" d="M3.17282 3.26408l-0.0137402 0c-0.00481102,0 -0.00874409,-0.00393307 -0.00874409,-0.00874016l0 -0.0254843c0,-0.00481102 0.00393307,-0.00874409 0.00874409,-0.00874409l0 0c0.00480709,0 0.00874409,0.00393307 0.00874409,0.00874409l0 0.0167402 0.00499606 0c0.00480709,0 0.00874409,0.00393307 0.00874409,0.00874409l0 0c0,0.00480709 -0.00393701,0.00874016 -0.00874409,0.00874016zm-0.0224843 -0.00874016l0 0z"/>
     </g>
     <g>
      <path id="_256709336" class="fil10" d="M3.12198 3.19688l0.0137402 0c0.00480709,0 0.00874409,0.00393307 0.00874409,0.00874409l0 0.0254803c0,0.00481102 -0.00393701,0.00874409 -0.00874409,0.00874409l0 0c-0.00481102,0 -0.00874409,-0.00393307 -0.00874409,-0.00874409l0 -0.0167362 -0.00499606 0c-0.00481102,0 -0.00874409,-0.00393307 -0.00874409,-0.00874409l0 0c0,-0.00481102 0.00393307,-0.00874409 0.00874409,-0.00874409zm0.0224843 0.00874409l0 0z"/>
      <path id="_256709288" class="fil10" d="M3.12872 3.26408l-0.0137402 0c-0.00481102,0 -0.00874409,-0.00393307 -0.00874409,-0.00874016l0 -0.0254843c0,-0.00481102 0.00393307,-0.00874409 0.00874409,-0.00874409l0 0c0.00480709,0 0.00874409,0.00393307 0.00874409,0.00874409l0 0.0167402 0.00499606 0c0.00480709,0 0.00874409,0.00393307 0.00874409,0.00874409l0 0c0,0.00480709 -0.00393701,0.00874016 -0.00874409,0.00874016zm-0.0224843 -0.00874016l0 0z"/>
     </g>
     <g>
      <path id="_256709000" class="fil10" d="M3.07789 3.19688l0.0137402 0c0.00480709,0 0.00874409,0.00393307 0.00874409,0.00874409l0 0.0254803c0,0.00481102 -0.00393701,0.00874409 -0.00874409,0.00874409l0 0c-0.00481102,0 -0.00874409,-0.00393307 -0.00874409,-0.00874409l0 -0.0167362 -0.00499606 0c-0.00481102,0 -0.00874409,-0.00393307 -0.00874409,-0.00874409l0 0c0,-0.00481102 0.00393307,-0.00874409 0.00874409,-0.00874409zm0.0224843 0.00874409l0 0z"/>
      <path id="_256708952" class="fil10" d="M3.08463 3.26408l-0.0137402 0c-0.00481102,0 -0.00874409,-0.00393307 -0.00874409,-0.00874016l0 -0.0254843c0,-0.00481102 0.00393307,-0.00874409 0.00874409,-0.00874409l0 0c0.00480709,0 0.00874409,0.00393307 0.00874409,0.00874409l0 0.0167402 0.00499606 0c0.00481102,0 0.00874409,0.00393307 0.00874409,0.00874409l0 0c0,0.00480709 -0.00393307,0.00874016 -0.00874409,0.00874016zm-0.0224843 -0.00874016l0 0z"/>
     </g>
     <g>
      <path id="_256708664" class="fil10" d="M3.03379 3.19688l0.0137402 0c0.00481102,0 0.00874409,0.00393307 0.00874409,0.00874409l0 0.0254803c0,0.00481102 -0.00393307,0.00874409 -0.00874409,0.00874409l0 0c-0.00481102,0 -0.00874409,-0.00393307 -0.00874409,-0.00874409l0 -0.0167362 -0.00499606 0c-0.00481102,0 -0.00874409,-0.00393307 -0.00874409,-0.00874409l0 0c0,-0.00481102 0.00393307,-0.00874409 0.00874409,-0.00874409zm0.0224843 0.00874409l0 0z"/>
      <path id="_256708616" class="fil10" d="M3.04054 3.26408l-0.0137402 0c-0.00481102,0 -0.00874409,-0.00393307 -0.00874409,-0.00874016l0 -0.0254843c0,-0.00481102 0.00393307,-0.00874409 0.00874409,-0.00874409l0 0c0.00481102,0 0.00874409,0.00393307 0.00874409,0.00874409l0 0.0167402 0.00499606 0c0.00481102,0 0.00874409,0.00393307 0.00874409,0.00874409l0 0c0,0.00480709 -0.00393307,0.00874016 -0.00874409,0.00874016zm-0.0224843 -0.00874016l0 0z"/>
     </g>
     <g>
      <path id="_256708328" class="fil10" d="M2.9897 3.19688l0.0137402 0c0.00481102,0 0.00874409,0.00393307 0.00874409,0.00874409l0 0.0254803c0,0.00481102 -0.00393307,0.00874409 -0.00874409,0.00874409l0 0c-0.00480709,0 -0.00874409,-0.00393307 -0.00874409,-0.00874409l0 -0.0167362 -0.00499606 0c-0.00481102,0 -0.00874409,-0.00393307 -0.00874409,-0.00874409l0 0c0,-0.00481102 0.00393307,-0.00874409 0.00874409,-0.00874409zm0.0224843 0.00874409l0 0z"/>
      <path id="_256708280" class="fil10" d="M2.99644 3.26408l-0.0137402 0c-0.00480709,0 -0.00874409,-0.00393307 -0.00874409,-0.00874016l0 -0.0254843c0,-0.00481102 0.00393701,-0.00874409 0.00874409,-0.00874409l0 0c0.00481102,0 0.00874409,0.00393307 0.00874409,0.00874409l0 0.0167402 0.00499606 0c0.00481102,0 0.00874409,0.00393307 0.00874409,0.00874409l0 0c0,0.00480709 -0.00393307,0.00874016 -0.00874409,0.00874016zm-0.0224843 -0.00874016l0 0z"/>
     </g>
     <g>
      <path id="_255822664" class="fil10" d="M2.9456 3.19688l0.0137402 0c0.00481102,0 0.00874409,0.00393307 0.00874409,0.00874409l0 0.0254803c0,0.00481102 -0.00393307,0.00874409 -0.00874409,0.00874409l0 0c-0.00480709,0 -0.00874409,-0.00393307 -0.00874409,-0.00874409l0 -0.0167362 -0.00499606 0c-0.00480709,0 -0.00874409,-0.00393307 -0.00874409,-0.00874409l0 0c0,-0.00481102 0.00393701,-0.00874409 0.00874409,-0.00874409zm0.0224843 0.00874409l0 0z"/>
      <path id="_255822616" class="fil10" d="M2.95235 3.26408l-0.0137402 0c-0.00480709,0 -0.00874409,-0.00393307 -0.00874409,-0.00874016l0 -0.0254843c0,-0.00481102 0.00393701,-0.00874409 0.00874409,-0.00874409l0 0c0.00481102,0 0.00874409,0.00393307 0.00874409,0.00874409l0 0.0167402 0.00499606 0c0.00481102,0 0.00874409,0.00393307 0.00874409,0.00874409l0 0c0,0.00480709 -0.00393307,0.00874016 -0.00874409,0.00874016zm-0.0224843 -0.00874016l0 0z"/>
     </g>
     <g>
      <path id="_255822328" class="fil10" d="M2.90151 3.19688l0.0137441 0c0.00480709,0 0.00874016,0.00393307 0.00874016,0.00874409l0 0.0254803c0,0.00481102 -0.00393307,0.00874409 -0.00874016,0.00874409l0 0c-0.00481102,0 -0.00874409,-0.00393307 -0.00874409,-0.00874409l0 -0.0167362 -0.005 0c-0.00480709,0 -0.00874409,-0.00393307 -0.00874409,-0.00874409l0 0c0,-0.00481102 0.00393701,-0.00874409 0.00874409,-0.00874409zm0.0224843 0.00874409l0 0z"/>
      <path id="_255822280" class="fil10" d="M2.90826 3.26408l-0.0137402 0c-0.00481102,0 -0.00874409,-0.00393307 -0.00874409,-0.00874016l0 -0.0254843c0,-0.00481102 0.00393307,-0.00874409 0.00874409,-0.00874409l0 0c0.00480709,0 0.00874016,0.00393307 0.00874016,0.00874409l0 0.0167402 0.005 0c0.00480709,0 0.00874409,0.00393307 0.00874409,0.00874409l0 0c0,0.00480709 -0.00393701,0.00874016 -0.00874409,0.00874016zm-0.0224843 -0.00874016l0 0z"/>
     </g>
     <g>
      <path id="_255821992" class="fil10" d="M2.85742 3.19688l0.0137402 0c0.00480709,0 0.00874409,0.00393307 0.00874409,0.00874409l0 0.0254803c0,0.00481102 -0.00393701,0.00874409 -0.00874409,0.00874409l0 0c-0.00481102,0 -0.00874409,-0.00393307 -0.00874409,-0.00874409l0 -0.0167362 -0.00499606 0c-0.00481102,0 -0.00874409,-0.00393307 -0.00874409,-0.00874409l0 0c0,-0.00481102 0.00393307,-0.00874409 0.00874409,-0.00874409zm0.0224843 0.00874409l0 0z"/>
      <path id="_255821944" class="fil10" d="M2.86416 3.26408l-0.0137402 0c-0.00481102,0 -0.00874409,-0.00393307 -0.00874409,-0.00874016l0 -0.0254843c0,-0.00481102 0.00393307,-0.00874409 0.00874409,-0.00874409l0 0c0.00480709,0 0.00874409,0.00393307 0.00874409,0.00874409l0 0.0167402 0.00499606 0c0.00480709,0 0.00874409,0.00393307 0.00874409,0.00874409l0 0c0,0.00480709 -0.00393701,0.00874016 -0.00874409,0.00874016zm-0.0224843 -0.00874016l0 0z"/>
     </g>
     <g>
      <path id="_255821656" class="fil10" d="M2.81332 3.19688l0.0137402 0c0.00480709,0 0.00874409,0.00393307 0.00874409,0.00874409l0 0.0254803c0,0.00481102 -0.00393701,0.00874409 -0.00874409,0.00874409l0 0c-0.00481102,0 -0.00874409,-0.00393307 -0.00874409,-0.00874409l0 -0.0167362 -0.00499606 0c-0.00481102,0 -0.00874409,-0.00393307 -0.00874409,-0.00874409l0 0c0,-0.00481102 0.00393307,-0.00874409 0.00874409,-0.00874409zm0.0224843 0.00874409l0 0z"/>
      <path id="_255821608" class="fil10" d="M2.82007 3.26408l-0.0137402 0c-0.00481102,0 -0.00874409,-0.00393307 -0.00874409,-0.00874016l0 -0.0254843c0,-0.00481102 0.00393307,-0.00874409 0.00874409,-0.00874409l0 0c0.00480709,0 0.00874409,0.00393307 0.00874409,0.00874409l0 0.0167402 0.00499606 0c0.00481102,0 0.00874409,0.00393307 0.00874409,0.00874409l0 0c0,0.00480709 -0.00393307,0.00874016 -0.00874409,0.00874016zm-0.0224843 -0.00874016l0 0z"/>
     </g>
     <g>
      <path id="_255821320" class="fil10" d="M2.76923 3.19688l0.0137402 0c0.00481102,0 0.00874409,0.00393307 0.00874409,0.00874409l0 0.0254803c0,0.00481102 -0.00393307,0.00874409 -0.00874409,0.00874409l0 0c-0.00481102,0 -0.00874409,-0.00393307 -0.00874409,-0.00874409l0 -0.0167362 -0.00499606 0c-0.00481102,0 -0.00874409,-0.00393307 -0.00874409,-0.00874409l0 0c0,-0.00481102 0.00393307,-0.00874409 0.00874409,-0.00874409zm0.0224843 0.00874409l0 0z"/>
      <path id="_255821272" class="fil10" d="M2.77597 3.26408l-0.0137402 0c-0.00481102,0 -0.00874409,-0.00393307 -0.00874409,-0.00874016l0 -0.0254843c0,-0.00481102 0.00393307,-0.00874409 0.00874409,-0.00874409l0 0c0.00481102,0 0.00874409,0.00393307 0.00874409,0.00874409l0 0.0167402 0.00499606 0c0.00481102,0 0.00874409,0.00393307 0.00874409,0.00874409l0 0c0,0.00480709 -0.00393307,0.00874016 -0.00874409,0.00874016zm-0.0224843 -0.00874016l0 0z"/>
     </g>
     <g>
      <path id="_255820984" class="fil10" d="M2.72513 3.19688l0.0137402 0c0.00481102,0 0.00874409,0.00393307 0.00874409,0.00874409l0 0.0254803c0,0.00481102 -0.00393307,0.00874409 -0.00874409,0.00874409l0 0c-0.00480709,0 -0.00874409,-0.00393307 -0.00874409,-0.00874409l0 -0.0167362 -0.00499606 0c-0.00481102,0 -0.00874409,-0.00393307 -0.00874409,-0.00874409l0 0c0,-0.00481102 0.00393307,-0.00874409 0.00874409,-0.00874409zm0.0224843 0.00874409l0 0z"/>
      <path id="_255820936" class="fil10" d="M2.73188 3.26408l-0.0137402 0c-0.00480709,0 -0.00874409,-0.00393307 -0.00874409,-0.00874016l0 -0.0254843c0,-0.00481102 0.00393701,-0.00874409 0.00874409,-0.00874409l0 0c0.00481102,0 0.00874409,0.00393307 0.00874409,0.00874409l0 0.0167402 0.00499606 0c0.00481102,0 0.00874409,0.00393307 0.00874409,0.00874409l0 0c0,0.00480709 -0.00393307,0.00874016 -0.00874409,0.00874016zm-0.0224843 -0.00874016l0 0z"/>
     </g>
     <g>
      <path id="_255820648" class="fil10" d="M2.68104 3.19688l0.0137402 0c0.00481102,0 0.00874409,0.00393307 0.00874409,0.00874409l0 0.0254803c0,0.00481102 -0.00393307,0.00874409 -0.00874409,0.00874409l0 0c-0.00480709,0 -0.00874409,-0.00393307 -0.00874409,-0.00874409l0 -0.0167362 -0.00499606 0c-0.00480709,0 -0.00874409,-0.00393307 -0.00874409,-0.00874409l0 0c0,-0.00481102 0.00393701,-0.00874409 0.00874409,-0.00874409zm0.0224843 0.00874409l0 0z"/>
      <path id="_255820600" class="fil10" d="M2.68778 3.26408l-0.0137402 0c-0.00480709,0 -0.00874409,-0.00393307 -0.00874409,-0.00874016l0 -0.0254843c0,-0.00481102 0.00393701,-0.00874409 0.00874409,-0.00874409l0 0c0.00481102,0 0.00874409,0.00393307 0.00874409,0.00874409l0 0.0167402 0.00499606 0c0.00481102,0 0.00874409,0.00393307 0.00874409,0.00874409l0 0c0,0.00480709 -0.00393307,0.00874016 -0.00874409,0.00874016zm-0.0224843 -0.00874016l0 0z"/>
     </g>
     <g>
      <path id="_255820312" class="fil10" d="M2.63694 3.19688l0.0137402 0c0.00481102,0 0.00874409,0.00393307 0.00874409,0.00874409l0 0.0254803c0,0.00481102 -0.00393307,0.00874409 -0.00874409,0.00874409l0 0c-0.00480709,0 -0.00874016,-0.00393307 -0.00874016,-0.00874409l0 -0.0167362 -0.005 0c-0.00480709,0 -0.00874409,-0.00393307 -0.00874409,-0.00874409l0 0c0,-0.00481102 0.00393701,-0.00874409 0.00874409,-0.00874409zm0.0224843 0.00874409l0 0z"/>
      <path id="_255820264" class="fil10" d="M2.64369 3.26408l-0.0137441 0c-0.00480709,0 -0.00874016,-0.00393307 -0.00874016,-0.00874016l0 -0.0254843c0,-0.00481102 0.00393307,-0.00874409 0.00874016,-0.00874409l0 0c0.00481102,0 0.00874409,0.00393307 0.00874409,0.00874409l0 0.0167402 0.005 0c0.00480709,0 0.00874409,0.00393307 0.00874409,0.00874409l0 0c0,0.00480709 -0.00393701,0.00874016 -0.00874409,0.00874016zm-0.0224843 -0.00874016l0 0z"/>
     </g>
     <g>
      <path id="_255819976" class="fil10" d="M2.59285 3.19688l0.0137441 0c0.00480709,0 0.00874409,0.00393307 0.00874409,0.00874409l0 0.0254803c0,0.00481102 -0.00393701,0.00874409 -0.00874409,0.00874409l0 0c-0.00481102,0 -0.00874409,-0.00393307 -0.00874409,-0.00874409l0 -0.0167362 -0.005 0c-0.00480709,0 -0.00874016,-0.00393307 -0.00874016,-0.00874409l0 0c0,-0.00481102 0.00393307,-0.00874409 0.00874016,-0.00874409zm0.0224882 0.00874409l0 0z"/>
      <path id="_255819928" class="fil10" d="M2.5996 3.26408l-0.0137402 0c-0.00481102,0 -0.00874409,-0.00393307 -0.00874409,-0.00874016l0 -0.0254843c0,-0.00481102 0.00393307,-0.00874409 0.00874409,-0.00874409l0 0c0.00480709,0 0.00874409,0.00393307 0.00874409,0.00874409l0 0.0167402 0.00499606 0c0.00480709,0 0.00874409,0.00393307 0.00874409,0.00874409l0 0c0,0.00480709 -0.00393701,0.00874016 -0.00874409,0.00874016zm-0.0224843 -0.00874016l0 0z"/>
     </g>
     <g>
      <path id="_255819640" class="fil10" d="M2.54876 3.19688l0.0137402 0c0.00480709,0 0.00874409,0.00393307 0.00874409,0.00874409l0 0.0254803c0,0.00481102 -0.00393701,0.00874409 -0.00874409,0.00874409l0 0c-0.00481102,0 -0.00874409,-0.00393307 -0.00874409,-0.00874409l0 -0.0167362 -0.00499606 0c-0.00481102,0 -0.00874409,-0.00393307 -0.00874409,-0.00874409l0 0c0,-0.00481102 0.00393307,-0.00874409 0.00874409,-0.00874409zm0.0224843 0.00874409l0 0z"/>
      <path id="_255819592" class="fil10" d="M2.5555 3.26408l-0.0137402 0c-0.00481102,0 -0.00874409,-0.00393307 -0.00874409,-0.00874016l0 -0.0254843c0,-0.00481102 0.00393307,-0.00874409 0.00874409,-0.00874409l0 0c0.00480709,0 0.00874409,0.00393307 0.00874409,0.00874409l0 0.0167402 0.00499606 0c0.00481102,0 0.00874409,0.00393307 0.00874409,0.00874409l0 0c0,0.00480709 -0.00393307,0.00874016 -0.00874409,0.00874016zm-0.0224843 -0.00874016l0 0z"/>
     </g>
     <g>
      <path id="_255819304" class="fil10" d="M2.50467 3.19688l0.0137402 0c0.00481102,0 0.00874409,0.00393307 0.00874409,0.00874409l0 0.0254803c0,0.00481102 -0.00393307,0.00874409 -0.00874409,0.00874409l0 0c-0.00481102,0 -0.00874409,-0.00393307 -0.00874409,-0.00874409l0 -0.0167362 -0.00499606 0c-0.00481102,0 -0.00874409,-0.00393307 -0.00874409,-0.00874409l0 0c0,-0.00481102 0.00393307,-0.00874409 0.00874409,-0.00874409zm0.0224843 0.00874409l0 0z"/>
      <path id="_255819256" class="fil10" d="M2.51141 3.26408l-0.0137402 0c-0.00481102,0 -0.00874409,-0.00393307 -0.00874409,-0.00874016l0 -0.0254843c0,-0.00481102 0.00393307,-0.00874409 0.00874409,-0.00874409l0 0c0.00481102,0 0.00874409,0.00393307 0.00874409,0.00874409l0 0.0167402 0.00499606 0c0.00481102,0 0.00874409,0.00393307 0.00874409,0.00874409l0 0c0,0.00480709 -0.00393307,0.00874016 -0.00874409,0.00874016zm-0.0224843 -0.00874016l0 0z"/>
     </g>
     <g>
      <path id="_255818488" class="fil10" d="M2.46057 3.19688l0.0137402 0c0.00481102,0 0.00874409,0.00393307 0.00874409,0.00874409l0 0.0254803c0,0.00481102 -0.00393307,0.00874409 -0.00874409,0.00874409l0 0c-0.00481102,0 -0.00874409,-0.00393307 -0.00874409,-0.00874409l0 -0.0167362 -0.00499606 0c-0.00481102,0 -0.00874409,-0.00393307 -0.00874409,-0.00874409l0 0c0,-0.00481102 0.00393307,-0.00874409 0.00874409,-0.00874409zm0.0224843 0.00874409l0 0z"/>
      <path id="_255819040" class="fil10" d="M2.46731 3.26408l-0.0137402 0c-0.00480709,0 -0.00874409,-0.00393307 -0.00874409,-0.00874016l0 -0.0254843c0,-0.00481102 0.00393701,-0.00874409 0.00874409,-0.00874409l0 0c0.00481102,0 0.00874409,0.00393307 0.00874409,0.00874409l0 0.0167402 0.00499606 0c0.00481102,0 0.00874409,0.00393307 0.00874409,0.00874409l0 0c0,0.00480709 -0.00393307,0.00874016 -0.00874409,0.00874016zm-0.0224843 -0.00874016l0 0z"/>
     </g>
    </g>
   </g>
  </g>
 </g>
 <rect class="fil11" width="6.82666" height="6.82666"/>
</svg>
